<svg width="20" height="16" viewBox="-4 -4 24 24" xmlns="http://www.w3.org/2000/svg">
<path d="M1.6665 3.33317V12.6665C1.6665 13.0347 1.96498 13.3332 2.33317 13.3332H4.6665H5.99984L4.99984 9.6665L7.33317 8.99984L6.99984 6.6665L9.6665 5.33317L8.99984 4.33317L9.99984 2.6665H2.33317C1.96498 2.6665 1.6665 2.96498 1.6665 3.33317Z" stroke-linecap="round" stroke-linejoin="round"/>
<path d="M14.3335 12.6665V3.33317C14.3335 2.96498 14.035 2.6665 13.6668 2.6665H12.6668L11.3335 4.6665L12.3335 6.33317L9.3335 7.6665L9.66683 10.3332L7.3335 10.9998L8.00016 13.3332H13.6668C14.035 13.3332 14.3335 13.0347 14.3335 12.6665Z" stroke-linecap="round" stroke-linejoin="round"/>
</svg>
