<svg width="20" height="20" viewBox="0 0 20 20" fill="none" xmlns="http://www.w3.org/2000/svg">
<path d="M17.9864 11.0355H14.6527V6.98626L10.4226 4.19942V2.42889C11.6293 2.63343 13.8176 3.2023 14.7891 2.48322C14.7891 1.72899 14.8198 0.466603 14.7891 0C13.3506 0.568872 9.5841 0 9.5841 0V4.19942L5.35399 6.98626V11.0355H2.02035C1.59427 11.0355 1.25 11.3583 1.25 11.7577V20H7.11284V19.1627C7.11284 17.7341 8.22406 16.4493 9.7409 16.3247C11.452 16.1841 12.8871 17.4465 12.8871 19.022V20H18.7499V11.7577C18.7567 11.3615 18.4124 11.0355 17.9864 11.0355V11.0355ZM10.0068 10.8533C9.60699 10.8533 9.21619 10.7422 8.88378 10.5339C8.55138 10.3257 8.2923 10.0297 8.13932 9.68338C7.98633 9.33709 7.9463 8.95603 8.02429 8.5884C8.10228 8.22078 8.2948 7.88309 8.57748 7.61804C8.86017 7.353 9.22033 7.1725 9.61243 7.09937C10.0045 7.02625 10.4109 7.06378 10.7803 7.20722C11.1496 7.35066 11.4653 7.59357 11.6874 7.90523C11.9095 8.21689 12.0281 8.5833 12.0281 8.95813C12.0281 10.0032 11.1214 10.8533 10.0068 10.8533Z" fill="#16B364"/>
</svg>
