<svg width="40" height="40" viewBox="0 0 40 40" fill="none" xmlns="http://www.w3.org/2000/svg">
<path d="M24.5271 5.21433L24.7379 5.41826L25.0283 5.37718L31.265 4.49504L32.3533 10.6991L32.404 10.988L32.6631 11.1255L38.2272 14.0776L35.461 19.7365L35.3321 20L35.461 20.2635L38.2272 25.9224L32.6631 28.8745L32.404 29.012L32.3533 29.3009L31.265 35.505L25.0283 34.6228L24.7379 34.5817L24.5271 34.7857L20 39.1652L15.4729 34.7857L15.2621 34.5817L14.9717 34.6228L8.73499 35.505L7.6467 29.3009L7.59603 29.012L7.33694 28.8745L1.77282 25.9224L4.53904 20.2635L4.66785 20L4.53904 19.7365L1.77282 14.0776L7.33694 11.1255L7.59603 10.988L7.6467 10.6991L8.73499 4.49504L14.9717 5.37718L15.2621 5.41826L15.4729 5.21433L20 0.834813L24.5271 5.21433Z" fill="white" stroke="#16B364" stroke-width="1.2"/>
<path d="M22.5901 10.3285L22.7658 10.4984L23.0078 10.4642L27.232 9.8667L27.9691 14.0688L28.0113 14.3095L28.2272 14.4241L31.9959 16.4236L30.1223 20.2564L30.015 20.476L30.1223 20.6956L31.9959 24.5284L28.2272 26.528L28.0113 26.6425L27.9691 26.8833L27.232 31.0854L23.0078 30.4879L22.7658 30.4536L22.5901 30.6236L19.5239 33.5899L16.4576 30.6236L16.282 30.4536L16.04 30.4879L11.8158 31.0854L11.0786 26.8833L11.0364 26.6425L10.8205 26.528L7.05187 24.5284L8.92546 20.6956L9.0328 20.476L8.92546 20.2564L7.05187 16.4236L10.8205 14.4241L11.0364 14.3095L11.0786 14.0688L11.8158 9.8667L16.04 10.4642L16.282 10.4984L16.4576 10.3285L19.5239 7.36218L22.5901 10.3285Z" fill="white" stroke="#16B364"/>
<path d="M1.10669 13.9335H38.8933L34.846 20.1489L34.6328 20.4764L34.846 20.8038L38.8933 27.0192H1.10669L5.15396 20.8038L5.36716 20.4764L5.15396 20.1489L1.10669 13.9335Z" fill="white" stroke="#16B364" stroke-width="1.2"/>
<path d="M7.83395 22.947C8.94562 22.947 9.62228 22.2842 9.62228 21.4694C9.62228 20.7237 9.18728 20.3509 8.58657 20.0954L7.88919 19.7985C7.4749 19.6328 7.06752 19.467 7.06752 19.032C7.06752 18.6247 7.40585 18.3761 7.92371 18.3761C8.37252 18.3761 8.72466 18.5487 9.04228 18.8318L9.46347 18.3209C9.07681 17.9273 8.51752 17.6787 7.92371 17.6787C6.95705 17.6787 6.25276 18.2794 6.25276 19.0804C6.25276 19.8192 6.79824 20.2059 7.28847 20.413L7.99276 20.7168C8.46228 20.9239 8.80752 21.0689 8.80752 21.5316C8.80752 21.9597 8.46228 22.2497 7.84776 22.2497C7.35752 22.2497 6.86038 22.0149 6.49443 21.6489L6.0249 22.2013C6.48752 22.6709 7.13657 22.947 7.83395 22.947Z" fill="#16B364"/>
<path d="M12.5665 22.947C13.2224 22.947 13.7403 22.6847 14.1477 22.2151L13.7196 21.7111C13.4157 22.0425 13.0567 22.2497 12.5941 22.2497C11.6965 22.2497 11.1303 21.5109 11.1303 20.3025C11.1303 19.108 11.7379 18.3761 12.6148 18.3761C13.0291 18.3761 13.3467 18.5625 13.6091 18.8318L14.0441 18.3209C13.7334 17.9825 13.2362 17.6787 12.601 17.6787C11.3167 17.6787 10.3086 18.673 10.3086 20.3301C10.3086 21.9942 11.2891 22.947 12.5665 22.947Z" fill="#16B364"/>
<path d="M15.0486 22.8573H15.8496V20.5442H18.0246V22.8573H18.8255V17.7754H18.0246V19.8468H15.8496V17.7754H15.0486V22.8573Z" fill="#16B364"/>
<path d="M22.0931 22.947C23.3981 22.947 24.3095 21.932 24.3095 20.2956C24.3095 18.6592 23.3981 17.6787 22.0931 17.6787C20.7881 17.6787 19.8836 18.6592 19.8836 20.2956C19.8836 21.932 20.7881 22.947 22.0931 22.947ZM22.0931 22.2497C21.2507 22.2497 20.7052 21.4901 20.7052 20.2956C20.7052 19.1011 21.2507 18.3761 22.0931 18.3761C22.9355 18.3761 23.4879 19.1011 23.4879 20.2956C23.4879 21.4901 22.9355 22.2497 22.0931 22.2497Z" fill="#16B364"/>
<path d="M27.2986 22.947C28.6036 22.947 29.5151 21.932 29.5151 20.2956C29.5151 18.6592 28.6036 17.6787 27.2986 17.6787C25.9936 17.6787 25.0891 18.6592 25.0891 20.2956C25.0891 21.932 25.9936 22.947 27.2986 22.947ZM27.2986 22.2497C26.4563 22.2497 25.9108 21.4901 25.9108 20.2956C25.9108 19.1011 26.4563 18.3761 27.2986 18.3761C28.141 18.3761 28.6934 19.1011 28.6934 20.2956C28.6934 21.4901 28.141 22.2497 27.2986 22.2497Z" fill="#16B364"/>
<path d="M30.5708 22.8573H33.5192V22.1806H31.3718V17.7754H30.5708V22.8573Z" fill="#16B364"/>
<path d="M7.83395 22.947C8.94562 22.947 9.62228 22.2842 9.62228 21.4694C9.62228 20.7237 9.18728 20.3509 8.58657 20.0954L7.88919 19.7985C7.4749 19.6328 7.06752 19.467 7.06752 19.032C7.06752 18.6247 7.40585 18.3761 7.92371 18.3761C8.37252 18.3761 8.72466 18.5487 9.04228 18.8318L9.46347 18.3209C9.07681 17.9273 8.51752 17.6787 7.92371 17.6787C6.95705 17.6787 6.25276 18.2794 6.25276 19.0804C6.25276 19.8192 6.79824 20.2059 7.28847 20.413L7.99276 20.7168C8.46228 20.9239 8.80752 21.0689 8.80752 21.5316C8.80752 21.9597 8.46228 22.2497 7.84776 22.2497C7.35752 22.2497 6.86038 22.0149 6.49443 21.6489L6.0249 22.2013C6.48752 22.6709 7.13657 22.947 7.83395 22.947Z" stroke="#16B364" stroke-width="0.47619"/>
<path d="M12.5665 22.947C13.2224 22.947 13.7403 22.6847 14.1477 22.2151L13.7196 21.7111C13.4157 22.0425 13.0567 22.2497 12.5941 22.2497C11.6965 22.2497 11.1303 21.5109 11.1303 20.3025C11.1303 19.108 11.7379 18.3761 12.6148 18.3761C13.0291 18.3761 13.3467 18.5625 13.6091 18.8318L14.0441 18.3209C13.7334 17.9825 13.2362 17.6787 12.601 17.6787C11.3167 17.6787 10.3086 18.673 10.3086 20.3301C10.3086 21.9942 11.2891 22.947 12.5665 22.947Z" stroke="#16B364" stroke-width="0.47619"/>
<path d="M15.0486 22.8573H15.8496V20.5442H18.0246V22.8573H18.8255V17.7754H18.0246V19.8468H15.8496V17.7754H15.0486V22.8573Z" stroke="#16B364" stroke-width="0.47619"/>
<path d="M22.0931 22.947C23.3981 22.947 24.3095 21.932 24.3095 20.2956C24.3095 18.6592 23.3981 17.6787 22.0931 17.6787C20.7881 17.6787 19.8836 18.6592 19.8836 20.2956C19.8836 21.932 20.7881 22.947 22.0931 22.947ZM22.0931 22.2497C21.2507 22.2497 20.7052 21.4901 20.7052 20.2956C20.7052 19.1011 21.2507 18.3761 22.0931 18.3761C22.9355 18.3761 23.4879 19.1011 23.4879 20.2956C23.4879 21.4901 22.9355 22.2497 22.0931 22.2497Z" stroke="#16B364" stroke-width="0.47619"/>
<path d="M27.2986 22.947C28.6036 22.947 29.5151 21.932 29.5151 20.2956C29.5151 18.6592 28.6036 17.6787 27.2986 17.6787C25.9936 17.6787 25.0891 18.6592 25.0891 20.2956C25.0891 21.932 25.9936 22.947 27.2986 22.947ZM27.2986 22.2497C26.4563 22.2497 25.9108 21.4901 25.9108 20.2956C25.9108 19.1011 26.4563 18.3761 27.2986 18.3761C28.141 18.3761 28.6934 19.1011 28.6934 20.2956C28.6934 21.4901 28.141 22.2497 27.2986 22.2497Z" stroke="#16B364" stroke-width="0.47619"/>
<path d="M30.5708 22.8573H33.5192V22.1806H31.3718V17.7754H30.5708V22.8573Z" stroke="#16B364" stroke-width="0.47619"/>
</svg>
