<svg width="16" height="16" viewBox="-4 -4 24 24" fill="none" xmlns="http://www.w3.org/2000/svg">
  <path
    d="M3.66669 1.33325C4.03488 1.33325 4.33335 1.63173 4.33335 1.99992V2.33325H8.33335C8.42364 2.33325 8.51298 2.35159 8.59597 2.38716L10.8035 3.33325H13C13.7364 3.33325 14.3334 3.9302 14.3334 4.66659V10.3333C14.3334 11.0696 13.7364 11.6666 13 11.6666H10.6667C10.5764 11.6666 10.4871 11.6482 10.4041 11.6127L8.19652 10.6666H4.33335V13.3333H5.00002C5.36821 13.3333 5.66669 13.6317 5.66669 13.9999C5.66669 14.3681 5.36821 14.6666 5.00002 14.6666H2.33335C1.96516 14.6666 1.66669 14.3681 1.66669 13.9999C1.66669 13.6317 1.96516 13.3333 2.33335 13.3333H3.00002V1.99992C3.00002 1.63173 3.2985 1.33325 3.66669 1.33325Z"
    fill="#BDB4FE"/>
</svg>
