<svg width="16" height="16" viewBox="-4 -4 24 24" fill="none" xmlns="http://www.w3.org/2000/svg">
  <path
    d="M8 1C8.36819 1 8.66667 1.29848 8.66667 1.66667V2.66667C8.66667 3.03486 8.36819 3.33333 8 3.33333C7.63181 3.33333 7.33333 3.03486 7.33333 2.66667V1.66667C7.33333 1.29848 7.63181 1 8 1Z"
    fill="#BDB4FE"/>
  <path
    d="M12.3924 2.5987C12.6744 2.83537 12.7112 3.25587 12.4746 3.53792L11.8318 4.30396C11.5951 4.58601 11.1746 4.6228 10.8925 4.38613C10.6105 4.14945 10.5737 3.72895 10.8104 3.4469L11.4532 2.68086C11.6898 2.39881 12.1103 2.36203 12.3924 2.5987Z"
    fill="#BDB4FE"/>
  <path
    d="M14.1888 7.41902C14.5514 7.35508 14.7935 7.0093 14.7295 6.64671C14.6656 6.28411 14.3198 6.042 13.9572 6.10594L12.9724 6.27961C12.6098 6.34355 12.3677 6.68933 12.4316 7.05192C12.4956 7.41452 12.8413 7.65662 13.2039 7.59268L14.1888 7.41902Z"
    fill="#BDB4FE"/>
  <path
    d="M1.27049 6.64673C1.33442 6.28413 1.68019 6.04201 2.04279 6.10594L3.02759 6.27957C3.39019 6.3435 3.63231 6.68927 3.56838 7.05187C3.50445 7.41447 3.15868 7.65658 2.79608 7.59265L1.81128 7.41902C1.44868 7.35509 1.20656 7.00932 1.27049 6.64673Z"
    fill="#BDB4FE"/>
  <path
    d="M4.54684 2.68086C4.31017 2.39881 3.88967 2.36203 3.60762 2.5987C3.32557 2.83537 3.28879 3.25587 3.52546 3.53792L4.16826 4.30396C4.40493 4.58601 4.82543 4.6228 5.10748 4.38613C5.38953 4.14945 5.42631 3.72895 5.18964 3.4469L4.54684 2.68086Z"
    fill="#BDB4FE"/>
  <path
    d="M1.33333 13.6667C1.33333 13.2985 1.63181 13 2 13H4V8.33333C4 6.12421 5.79088 4.33333 8 4.33333C10.2091 4.33333 12 6.12421 12 8.33333V13H14.3333C14.7015 13 15 13.2985 15 13.6667C15 14.0349 14.7015 14.3333 14.3333 14.3333H2C1.63181 14.3333 1.33333 14.0349 1.33333 13.6667Z"
    fill="#BDB4FE"/>
</svg>
