<svg width="16" height="16" viewBox="-4 -4 24 24" fill="none" xmlns="http://www.w3.org/2000/svg">
  <path
    d="M1.33334 3.66683C1.33334 2.37817 2.37801 1.3335 3.66668 1.3335C4.95533 1.3335 6.00001 2.37816 6.00001 3.66683C6.00001 4.72383 5.29717 5.61668 4.33334 5.90354V14.0002C4.33334 14.3684 4.03487 14.6668 3.66668 14.6668C3.29849 14.6668 3.00001 14.3684 3.00001 14.0002V5.90354C2.03618 5.61668 1.33334 4.72383 1.33334 3.66683Z"
    fill="#5FE9D0"/>
  <path
    d="M8.66668 5.76346V2.00016C8.66668 1.63197 8.3682 1.3335 8.00001 1.3335C7.63182 1.3335 7.33334 1.63197 7.33334 2.00016V5.76346C6.36952 6.05031 5.66668 6.94316 5.66668 8.00016C5.66668 9.05716 6.36952 9.95002 7.33334 10.2369V14.0002C7.33334 14.3684 7.63182 14.6668 8.00001 14.6668C8.3682 14.6668 8.66668 14.3684 8.66668 14.0002V10.2369C9.6305 9.95002 10.3333 9.05716 10.3333 8.00016C10.3333 6.94316 9.6305 6.05031 8.66668 5.76346Z"
    fill="#5FE9D0"/>
  <path
    d="M13 10.0968V2.00016C13 1.63197 12.7015 1.3335 12.3333 1.3335C11.9652 1.3335 11.6667 1.63197 11.6667 2.00016V10.0968C10.7029 10.3836 10 11.2765 10 12.3335C10 13.6222 11.0447 14.6668 12.3333 14.6668C13.622 14.6668 14.6667 13.6222 14.6667 12.3335C14.6667 11.2765 13.9638 10.3836 13 10.0968Z"
    fill="#5FE9D0"/>
</svg>
