<svg width="16" height="16" viewBox="-4 -4 24 24" fill="none" xmlns="http://www.w3.org/2000/svg">
  <path
    fill-rule="evenodd"
    clip-rule="evenodd"
    d="M5.33333 3.33317C5.33333 1.86041 6.52724 0.666504 8 0.666504C9.47276 0.666504 10.6667 1.86041 10.6667 3.33317V8.35173C11.4841 9.08338 12 10.1481 12 11.3332C12 13.5423 10.2091 15.3332 8 15.3332C5.79086 15.3332 4 13.5423 4 11.3332C4 10.1481 4.51593 9.08338 5.33333 8.35173V3.33317ZM8.66667 5.6665C8.66667 5.29831 8.36819 4.99984 8 4.99984C7.63181 4.99984 7.33333 5.29831 7.33333 5.6665V9.44697C6.55654 9.72153 6 10.4624 6 11.3332C6 12.4377 6.89543 13.3332 8 13.3332C9.10457 13.3332 10 12.4377 10 11.3332C10 10.4624 9.44346 9.72153 8.66667 9.44697V5.6665Z"
    fill="#F7B27A"/>
</svg>
