<svg width="16" height="16" viewBox="-4 -4 24 24" fill="none" xmlns="http://www.w3.org/2000/svg">
  <path
    fill-rule="evenodd" clip-rule="evenodd"
    d="M5.33333 3.33341C5.33333 1.86066 6.52724 0.666748 8 0.666748C9.47276 0.666748 10.6667 1.86066 10.6667 3.33341V8.35197C11.4841 9.08362 12 10.1483 12 11.3334C12 13.5426 10.2091 15.3334 8 15.3334C5.79086 15.3334 4 13.5426 4 11.3334C4 10.1483 4.51593 9.08362 5.33333 8.35197V3.33341ZM8.66667 5.66675C8.66667 5.29856 8.36819 5.00008 8 5.00008C7.63181 5.00008 7.33333 5.29856 7.33333 5.66675V9.44722C6.55654 9.72178 6 10.4626 6 11.3334C6 12.438 6.89543 13.3334 8 13.3334C9.10457 13.3334 10 12.438 10 11.3334C10 10.4626 9.44346 9.72178 8.66667 9.44722V5.66675Z"
    fill="#5FE9D0"/>
</svg>
