<svg width="16" height="16" viewBox="-4 -4 24 24" fill="none" xmlns="http://www.w3.org/2000/svg">
  <path
    d="M6.66669 6.99984H8.26395C8.88046 6.99984 9.33335 6.52674 9.33335 5.99984C9.33335 5.47293 8.88046 4.99984 8.26395 4.99984H6.66669V6.99984Z"
    fill="#84ADFF"/>
  <path
    d="M6.66669 8.33317V10.9998H8.94369C9.43726 10.9998 10 10.4996 10 9.6665C10 8.83339 9.43726 8.33317 8.94369 8.33317H6.66669Z"
    fill="#84ADFF"/>
  <path
    fill-rule="evenodd"
    clip-rule="evenodd"
    d="M8.00002 0.666504C3.94993 0.666504 0.666687 3.94975 0.666687 7.99984C0.666687 12.0499 3.94993 15.3332 8.00002 15.3332C12.0501 15.3332 15.3334 12.0499 15.3334 7.99984C15.3334 3.94975 12.0501 0.666504 8.00002 0.666504ZM5.33335 4.33317C5.33335 3.96498 5.63183 3.6665 6.00002 3.6665H8.26395C9.56505 3.6665 10.6667 4.68581 10.6667 5.99984C10.6667 6.52564 10.4903 7.00426 10.1953 7.38926C10.9001 7.8744 11.3334 8.75158 11.3334 9.6665C11.3334 11.0425 10.3532 12.3332 8.94369 12.3332H6.00002C5.63183 12.3332 5.33335 12.0347 5.33335 11.6665V4.33317ZM6.66669 6.99984H8.26395C8.88046 6.99984 9.33335 6.52674 9.33335 5.99984C9.33335 5.47293 8.88046 4.99984 8.26395 4.99984H6.66669V6.99984ZM6.66669 8.33317V10.9998H8.94369C9.43726 10.9998 10 10.4996 10 9.6665C10 8.83339 9.43726 8.33317 8.94369 8.33317H6.66669Z"
    fill="#84ADFF"/>
</svg>
