<svg width="16" height="16" viewBox="-4 -4 24 24" fill="none" xmlns="http://www.w3.org/2000/svg">
  <path
    fill-rule="evenodd"
    clip-rule="evenodd"
    d="M4.66666 1.99984C4.66666 1.26346 5.26361 0.666504 5.99999 0.666504H12.6667C13.403 0.666504 14 1.26346 14 1.99984V13.3332H14.6667C15.0348 13.3332 15.3333 13.6316 15.3333 13.9998C15.3333 14.368 15.0348 14.6665 14.6667 14.6665H1.33332C0.965133 14.6665 0.666656 14.368 0.666656 13.9998C0.666656 13.6316 0.965133 13.3332 1.33332 13.3332H1.99999V9.33317C1.99999 8.59679 2.59694 7.99984 3.33332 7.99984H4.66666V1.99984ZM7.33332 3.33317H8.66666V4.6665H7.33332V3.33317ZM3.99999 10.6665C3.6318 10.6665 3.33332 10.965 3.33332 11.3332C3.33332 11.7014 3.6318 11.9998 3.99999 11.9998H4.33332C4.70151 11.9998 4.99999 11.7014 4.99999 11.3332C4.99999 10.965 4.70151 10.6665 4.33332 10.6665H3.99999ZM11.3333 3.33317H9.99999V4.6665H11.3333V3.33317ZM7.33332 5.6665H8.66666V6.99984H7.33332V5.6665ZM11.3333 5.6665H9.99999V6.99984H11.3333V5.6665ZM9.99999 7.99984H11.3333V9.33317H9.99999V7.99984ZM11.3333 10.3332H9.99999V11.6665H11.3333V10.3332Z"
    fill="#EEAAFD"/>
</svg>
