<svg width="24" height="24" viewBox="0 0 24 24" fill="none" xmlns="http://www.w3.org/2000/svg">
  <rect width="24" height="24" rx="6" fill="#FEF6EE"/>
  <path
    d="M18 11.3332C18.3682 11.3332 18.6667 11.6316 18.6667 11.9998C18.6667 13.7915 17.9558 15.4722 16.7141 16.7138C16.4067 17.0213 16.07 17.2982 15.7088 17.5404C15.6293 17.5937 15.5486 17.6454 15.4668 17.6952L15.3333 17.7725V18.6668C15.3332 19.0086 15.0759 19.2902 14.7444 19.3287L14.6667 19.3332H9.33334C8.96427 19.3332 8.66543 19.0333 8.66668 18.6642L8.66934 17.7738L8.54181 17.7005L8.30119 17.5471C7.93624 17.3033 7.59613 17.0241 7.28598 16.7139C6.04423 15.4722 5.33334 13.7914 5.33334 11.9998C5.33334 11.6316 5.63182 11.3332 6.00001 11.3332H18ZM17.2907 12.6665H6.70868L6.72751 12.8077C6.88844 13.8669 7.36338 14.8444 8.0897 15.6267L8.22881 15.7711C8.47724 16.0196 8.74962 16.2432 9.04181 16.4383C9.23173 16.5652 9.4295 16.6797 9.63389 16.7811C9.86155 16.894 10.0052 17.1265 10.0044 17.3806L10.002 17.9998H14L14.0005 17.3756C14.0006 17.1508 14.1138 16.9431 14.2981 16.8207L14.3705 16.7789C14.5763 16.6766 14.7753 16.561 14.9662 16.433C15.2553 16.2391 15.525 16.0173 15.7712 15.7711C16.5761 14.9663 17.1015 13.9331 17.2725 12.8077L17.2907 12.6665ZM13.3333 4.6665C13.7015 4.6665 14 4.96498 14 5.33317C14 5.67506 13.7427 5.95684 13.4111 5.99535L13.3333 5.99984C12.9915 5.99984 12.7097 6.2572 12.6712 6.58876L12.6667 6.66517V10.0026C12.6667 10.3708 12.3682 10.6693 12 10.6693C11.6581 10.6693 11.3763 10.4119 11.3378 10.0804L11.3333 10.0026V6.66517L11.3367 6.54899C11.3976 5.49912 12.2682 4.6665 13.3333 4.6665ZM17.3333 5.99984C17.7015 5.99984 18 6.29831 18 6.6665C18 7.00839 17.7427 7.29018 17.4111 7.32869L17.3333 7.33317C16.9915 7.33317 16.7097 7.59054 16.6712 7.92209L16.6667 7.99984V10.0026C16.6667 10.3708 16.3682 10.6693 16 10.6693C15.6581 10.6693 15.3763 10.4119 15.3378 10.0804L15.3333 10.0026V7.9985L15.3367 7.88232C15.3976 6.83245 16.2682 5.99984 17.3333 5.99984ZM8.66668 10.0026C8.66668 10.3708 8.3682 10.6693 8.00001 10.6693C7.65812 10.6693 7.37634 10.4119 7.33783 10.0804L7.33334 10.0026V7.9985L7.33674 7.88232C7.39757 6.83245 8.26823 5.99984 9.33334 5.99984C9.70153 5.99984 10 6.29831 10 6.6665C10 7.00839 9.74265 7.29018 9.41109 7.32869L9.33334 7.33317C8.99146 7.33317 8.70967 7.59054 8.67116 7.92209L8.66668 7.9985V10.0026Z"
    fill="#F38744"/>
  <path
    d="M17.2906 12.6665H6.70865L6.72749 12.8077C6.88841 13.8669 7.36335 14.8444 8.08967 15.6267L8.22878 15.7711C8.47721 16.0196 8.7496 16.2432 9.04178 16.4383C9.2317 16.5652 9.42947 16.6797 9.63386 16.7811C9.86152 16.894 10.0052 17.1265 10.0043 17.3806L10.002 17.9998H14L14.0005 17.3756C14.0006 17.1508 14.1138 16.9431 14.2981 16.8207L14.3704 16.7789C14.5763 16.6766 14.7752 16.561 14.9661 16.433C15.2553 16.2391 15.525 16.0173 15.7712 15.7711C16.576 14.9663 17.1015 13.9331 17.2725 12.8077L17.2906 12.6665Z"
    fill="#FDEAD7"/>
</svg>
