<svg width="16" height="16" viewBox="-4 -4 24 24" fill="none" xmlns="http://www.w3.org/2000/svg">
  <path
    fill-rule="evenodd" clip-rule="evenodd"
    d="M4.20003 1.00401C4.25743 1.00134 4.31486 1.00001 4.3723 1H4.71654L4.76504 1.00717C5.6225 1.13395 6.19399 1.43899 6.64823 1.68145L6.72169 1.7206C7.17278 1.96036 7.49474 2.11275 8.00009 2.11275C8.50543 2.11275 8.82735 1.96038 9.2784 1.72062L9.35184 1.68148C9.80608 1.43902 10.3776 1.13398 11.2351 1.00717L11.2836 1H11.5001C13.6172 1 15.3334 2.71624 15.3334 4.83333V5.04197C15.3334 5.72528 14.9793 6.39015 14.6955 6.89743C14.6431 6.99091 14.5919 7.08122 14.5425 7.16824C14.2876 7.61764 14.0776 7.98763 13.9738 8.34633C13.6551 9.44741 13.4513 10.2998 13.3917 11.1767C13.312 12.3466 13.0696 13.2625 12.6852 13.9084C12.2952 14.5637 11.7132 15 11.0001 15C10.6113 15 10.3062 14.8014 10.0974 14.6081C9.88477 14.4113 9.70242 14.1569 9.54605 13.8986C9.23237 13.3805 8.94452 12.7117 8.69111 12.0887C8.61276 11.8961 8.53784 11.7083 8.46593 11.528L8.46557 11.5271C8.29782 11.1066 8.1459 10.7258 8.00179 10.4124L7.99619 10.4234C7.81341 10.7835 7.61413 11.2418 7.39659 11.7421C7.34494 11.8609 7.29225 11.982 7.23851 12.1048C6.9671 12.7249 6.66929 13.3848 6.3691 13.8926C6.22002 14.1448 6.05166 14.3922 5.8641 14.5844C5.69454 14.7582 5.40035 15 5.00009 15C4.78174 15 4.51378 14.9675 4.2354 14.8345C3.95439 14.7003 3.70484 14.4839 3.49319 14.1788C3.08684 13.593 2.80278 12.6551 2.65206 11.2001C2.54152 10.1331 2.35931 9.49648 2.02638 8.34634C1.92851 8.00824 1.73769 7.6444 1.50406 7.19892C1.44395 7.0843 1.38101 6.96428 1.31609 6.83791C1.02957 6.2802 0.70031 5.58693 0.667475 4.88136C0.572256 2.83518 2.15384 1.09923 4.20003 1.00401ZM11.3013 3.94983C11.4143 4.30026 11.2218 4.67592 10.8714 4.7889L10.0864 5.04199L10.8714 5.29507C11.2218 5.40804 11.4143 5.78371 11.3013 6.13414C11.1884 6.48457 10.8127 6.67706 10.4623 6.56408L7.91372 5.74245L5.36537 6.56403C5.01494 6.67701 4.63928 6.48452 4.5263 6.13409C4.41332 5.78366 4.60581 5.408 4.95624 5.29502L5.74105 5.042L4.95624 4.78898C4.60582 4.67601 4.41332 4.30035 4.5263 3.94992C4.63927 3.59949 5.01494 3.40699 5.36536 3.51997L7.91372 4.34154L10.4623 3.51989C10.8127 3.40691 11.1884 3.5994 11.3013 3.94983Z"
    fill="#5FE9D0"/>
</svg>
