<svg width="16" height="16" viewBox="-4 -4 24 24" fill="none" xmlns="http://www.w3.org/2000/svg">
  <path
    fill-rule="evenodd"
    clip-rule="evenodd"
    d="M0.666687 2.33341C0.666687 1.41294 1.41288 0.666748 2.33335 0.666748H13.6667C14.5872 0.666748 15.3334 1.41294 15.3334 2.33341V13.6667C15.3334 14.5872 14.5872 15.3334 13.6667 15.3334H2.33335C1.41288 15.3334 0.666687 14.5872 0.666687 13.6667V2.33341ZM3.33335 4.00008C3.33335 3.63189 3.63183 3.33341 4.00002 3.33341H6.66669C7.03488 3.33341 7.33335 3.63189 7.33335 4.00008V6.66675C7.33335 7.03494 7.03488 7.33341 6.66669 7.33341H4.00002C3.63183 7.33341 3.33335 7.03494 3.33335 6.66675V4.00008ZM3.33335 9.33341C3.33335 8.96522 3.63183 8.66675 4.00002 8.66675H6.66669C7.03488 8.66675 7.33335 8.96522 7.33335 9.33341V12.0001C7.33335 12.3683 7.03488 12.6667 6.66669 12.6667H4.00002C3.63183 12.6667 3.33335 12.3683 3.33335 12.0001V9.33341ZM9.33335 3.33341C8.96516 3.33341 8.66669 3.63189 8.66669 4.00008C8.66669 4.36827 8.96516 4.66675 9.33335 4.66675H12C12.3682 4.66675 12.6667 4.36827 12.6667 4.00008C12.6667 3.63189 12.3682 3.33341 12 3.33341H9.33335ZM9.33335 8.66675C8.96516 8.66675 8.66669 8.96522 8.66669 9.33341C8.66669 9.7016 8.96516 10.0001 9.33335 10.0001H12C12.3682 10.0001 12.6667 9.7016 12.6667 9.33341C12.6667 8.96522 12.3682 8.66675 12 8.66675H9.33335ZM8.66669 12.0001C8.66669 11.6319 8.96516 11.3334 9.33335 11.3334H12C12.3682 11.3334 12.6667 11.6319 12.6667 12.0001C12.6667 12.3683 12.3682 12.6667 12 12.6667H9.33335C8.96516 12.6667 8.66669 12.3683 8.66669 12.0001ZM9.33335 6.00008C8.96516 6.00008 8.66669 6.29856 8.66669 6.66675C8.66669 7.03494 8.96516 7.33341 9.33335 7.33341H12C12.3682 7.33341 12.6667 7.03494 12.6667 6.66675C12.6667 6.29856 12.3682 6.00008 12 6.00008H9.33335Z"
    fill="#BDB4FE"/>
</svg>
