<svg width="16" height="16" viewBox="-4 -4 24 24" fill="none" xmlns="http://www.w3.org/2000/svg">
  <path
    d="M1.33335 0.666504C0.965164 0.666504 0.666687 0.964981 0.666687 1.33317V14.6665C0.666687 15.0347 0.965164 15.3332 1.33335 15.3332H8.33335C8.70154 15.3332 9.00002 15.0347 9.00002 14.6665V9.99984C9.00002 9.82303 8.92978 9.65346 8.80476 9.52843L6.00002 6.72369V1.33317C6.00002 0.964981 5.70154 0.666504 5.33335 0.666504H1.33335Z"
    fill="#F7B27A"/>
  <path
    d="M7.33335 1.33317C7.33335 0.964981 7.63183 0.666504 8.00002 0.666504H14.6667C15.0349 0.666504 15.3334 0.964981 15.3334 1.33317V14.6665C15.3334 15.0347 15.0349 15.3332 14.6667 15.3332H11C10.6318 15.3332 10.3334 15.0347 10.3334 14.6665V8.94265L7.52862 6.13791C7.40359 6.01288 7.33335 5.84331 7.33335 5.6665V1.33317Z"
    fill="#F7B27A"/>
</svg>
