<svg width="16" height="16" viewBox="-4 -4 24 24" fill="none" xmlns="http://www.w3.org/2000/svg">
  <path
    fill-rule="evenodd"
    clip-rule="evenodd"
    d="M0.666687 1.69705C0.666687 1.18382 1.06099 0.666748 1.66669 0.666748H14.3334C14.9391 0.666748 15.3334 1.18383 15.3334 1.69705V4.96978C15.3334 5.48302 14.9391 6.00008 14.3334 6.00008H5.33335V7.33648L11.3337 7.33915C11.7017 7.33931 12 7.63774 12 8.00581V10.0001H14.3334C14.9391 10.0001 15.3334 10.5171 15.3334 11.0304V14.3031C15.3334 14.8163 14.9391 15.3334 14.3334 15.3334H1.66669C1.061 15.3334 0.666687 14.8164 0.666687 14.3031V11.0304C0.666687 10.5171 1.061 10.0001 1.66669 10.0001H10.6667V8.67218L4.66639 8.66951C4.29832 8.66935 4.00002 8.37092 4.00002 8.00285V6.00008H1.66669C1.061 6.00008 0.666687 5.48303 0.666687 4.96978V1.69705ZM5.33335 12.6667C5.33335 12.2986 5.63183 12.0001 6.00002 12.0001H10C10.3682 12.0001 10.6667 12.2986 10.6667 12.6667C10.6667 13.0349 10.3682 13.3334 10 13.3334H6.00002C5.63183 13.3334 5.33335 13.0349 5.33335 12.6667ZM6.00002 2.66675C5.63183 2.66675 5.33335 2.96522 5.33335 3.33341C5.33335 3.7016 5.63183 4.00008 6.00002 4.00008H10C10.3682 4.00008 10.6667 3.7016 10.6667 3.33341C10.6667 2.96522 10.3682 2.66675 10 2.66675H6.00002Z"
    fill="#BDB4FE"/>
</svg>
