<svg width="16" height="16" viewBox="-4 -4 24 24" fill="none" xmlns="http://www.w3.org/2000/svg">
  <path
    fill-rule="evenodd"
    clip-rule="evenodd"
    d="M1.33331 3.00016C1.33331 2.07969 2.07951 1.3335 2.99998 1.3335H13C13.9205 1.3335 14.6666 2.07969 14.6666 3.00016V13.0002C14.6666 13.9206 13.9205 14.6668 13 14.6668H2.99998C2.07951 14.6668 1.33331 13.9206 1.33331 13.0002V3.00016ZM6.68328 4.60313L7.76415 3.52227C7.89431 3.3921 8.10538 3.3921 8.23555 3.52227L9.31645 4.60313C9.52641 4.81313 9.37771 5.17217 9.08075 5.17217H6.91898C6.62201 5.17217 6.47328 4.81313 6.68328 4.60313ZM4.60248 9.31692L3.52161 8.23602C3.39144 8.10585 3.39144 7.89479 3.52161 7.76462L4.60248 6.68375C4.81248 6.47375 5.17151 6.62249 5.17151 6.91945V9.08119C5.17151 9.37819 4.81248 9.52689 4.60248 9.31692ZM9.31635 11.3973L8.23548 12.4782C8.10531 12.6084 7.89425 12.6084 7.76408 12.4782L6.68318 11.3973C6.47321 11.1873 6.62191 10.8283 6.91891 10.8283H9.08065C9.37761 10.8283 9.52635 11.1873 9.31635 11.3973ZM11.3971 6.68309L12.478 7.76399C12.6082 7.89415 12.6082 8.10522 12.478 8.23539L11.3971 9.31625C11.1871 9.52625 10.8281 9.37752 10.8281 9.08055V6.91882C10.8281 6.62182 11.1871 6.47312 11.3971 6.68309Z"
    fill="#84ADFF"/>
</svg>
