<svg width="16" height="16" viewBox="-4 -4 24 24" fill="none" xmlns="http://www.w3.org/2000/svg">
  <path
    d="M5.85392 2.80922C5.19632 3.31687 4.74237 4.0998 4.54216 5.24163C4.50592 5.44829 4.37452 5.62582 4.18746 5.72085C3.47045 6.08512 2.91196 6.37949 2.50822 6.60528C2.66813 6.72069 2.84328 6.87364 2.97589 7.07103C3.19018 7.39003 3.27609 7.80305 3.10092 8.24732C3.01558 8.46378 2.8973 8.70968 2.78504 8.94306L2.7367 9.04369C2.60467 9.31915 2.47886 9.58872 2.38173 9.8492C2.28332 10.1131 2.22831 10.332 2.21775 10.5047C2.20757 10.6713 2.24072 10.7489 2.26996 10.7897C2.30552 10.8393 2.37059 10.8954 2.53262 10.9487C2.70766 11.0063 2.92688 11.0394 3.23127 11.0794L3.32201 11.0912C3.86398 11.1609 4.65179 11.2622 5.28144 11.762C6.07536 12.3922 6.62912 13.3181 6.98265 14.471C7.09059 14.8231 6.89273 15.1959 6.54072 15.3039C6.18871 15.4118 5.81584 15.2139 5.7079 14.8619C5.40816 13.8844 4.97639 13.2222 4.45251 12.8064C4.12991 12.5503 3.6931 12.4848 3.05763 12.4014C2.77336 12.364 2.42944 12.3183 2.11601 12.2153C1.78956 12.1079 1.44078 11.9215 1.18631 11.5665C0.925506 11.2027 0.86444 10.7908 0.886898 10.4234C0.908977 10.0621 1.01346 9.70234 1.13244 9.38331C1.25268 9.06086 1.40215 8.74321 1.53433 8.46742L1.58412 8.36368C1.69296 8.13712 1.78298 7.94974 1.84831 7.78876C1.81303 7.75025 1.74318 7.69139 1.61887 7.6139C1.547 7.5691 1.47146 7.52666 1.38881 7.48073L1.36883 7.46963C1.29721 7.42988 1.21151 7.38231 1.13764 7.33591C1.07323 7.29545 0.934048 7.20643 0.82885 7.07059C0.770745 6.99556 0.686219 6.85993 0.669473 6.67172C0.650886 6.4628 0.723604 6.28255 0.824462 6.15384C0.933457 6.01476 1.10175 5.89938 1.21303 5.82573C1.35327 5.73293 1.53482 5.6241 1.75203 5.5009C2.13289 5.28488 2.64822 5.01068 3.29482 4.67941C3.5698 3.44605 4.1383 2.44922 5.03916 1.75378C6.01118 1.00341 7.28937 0.666504 8.79934 0.666504C11.1385 0.666504 12.7943 1.66909 13.8497 3.00778C14.8865 4.32277 15.3333 5.94486 15.3333 7.22612C15.3333 9.69962 13.3851 12.2496 10.5991 13.0398C10.7407 13.3167 11.0241 13.7065 11.4887 14.2186C11.736 14.4913 11.7155 14.9129 11.4428 15.1603C11.1701 15.4076 10.7485 15.3871 10.5011 15.1144C10.0025 14.5647 9.62238 14.0656 9.40181 13.6268C9.20231 13.2299 9.0181 12.6453 9.36506 12.14C9.46454 11.9951 9.61719 11.8954 9.78982 11.8625C12.2926 11.3855 13.9999 9.17212 13.9999 7.22612C13.9999 6.21642 13.6374 4.89203 12.8027 3.83329C11.9866 2.79824 10.7089 1.99984 8.79934 1.99984C7.47685 1.99984 6.51983 2.29515 5.85392 2.80922Z"
    fill="#F7B27A"/>
  <path
    d="M8.8776 3.61651C8.86627 3.61651 8.85647 3.6163 8.84808 3.61596L8.81251 3.58288C8.69231 3.4717 8.51968 3.35359 8.25555 3.30895C8.03371 3.27146 7.78923 3.29354 7.52078 3.34561C6.76102 3.49295 6.09125 3.87487 5.86128 4.64197C5.85879 4.65026 5.85647 4.65861 5.85431 4.66699C5.62426 5.55935 5.60847 6.48019 6.22682 7.08825C6.60357 7.45873 7.12913 7.69162 7.74098 7.83212C7.73095 8.16773 7.7708 8.4859 7.89427 8.75858C7.99232 8.97511 8.14552 9.16735 8.36029 9.30117L8.28871 9.39758L8.28206 9.40636C8.17876 9.54278 8.07517 9.67957 7.98324 9.81048C7.80145 10.0693 7.61106 10.3776 7.53912 10.7392C7.46729 11.1004 7.70181 11.4513 8.06292 11.5232C8.42404 11.595 8.77501 11.3605 8.84684 10.9993C8.8618 10.9241 8.91344 10.8059 9.07437 10.5768L9.35168 10.2025C9.45876 10.0611 9.58038 9.90044 9.70854 9.72162C9.75315 9.65942 9.86196 9.54887 10.0318 9.41169C10.192 9.28238 10.3703 9.15816 10.5182 9.0664C10.6367 8.99284 10.7242 8.88815 10.7765 8.76946C11.1301 8.8091 11.4761 8.78416 11.7864 8.64948C12.3447 8.4072 12.6017 7.90088 12.6624 7.35706C12.7418 6.64695 12.591 6.0091 12.3767 5.54085C12.2701 5.30788 12.1394 5.09863 11.9955 4.93574C11.9241 4.85499 11.8369 4.77124 11.7339 4.7027C11.6422 4.64162 11.4737 4.54925 11.2541 4.54925C11.2031 4.54925 11.1344 4.54766 11.0614 4.54138C11.0233 4.5381 10.9878 4.53384 10.9556 4.52877C10.8842 4.32937 10.7517 4.18106 10.633 4.08368C10.4629 3.94412 10.2608 3.85442 10.0818 3.79438C9.71779 3.67231 9.27703 3.61651 8.8776 3.61651Z"
    fill="#F7B27A"/>
</svg>
