<svg width="24" height="24" viewBox="0 0 24 24" fill="none" xmlns="http://www.w3.org/2000/svg">
  <rect width="24" height="24" rx="6" fill="#FDF4FF"/>
  <path
    d="M9.99999 11.3335H7.33332C6.96513 11.3335 6.66666 11.632 6.66666 12.0002V17.3335C6.66666 17.7017 6.96513 18.0002 7.33332 18.0002H9.99999C10.3682 18.0002 10.6667 17.7017 10.6667 17.3335V12.0002C10.6667 11.632 10.3682 11.3335 9.99999 11.3335Z"
    fill="#91D5FF"/>
  <path
    d="M16.6667 5.3335H11.3333C10.9651 5.3335 10.6667 5.63197 10.6667 6.00016V17.3335C10.6667 17.7017 10.9651 18.0002 11.3333 18.0002H16.6667C17.0348 18.0002 17.3333 17.7017 17.3333 17.3335V6.00016C17.3333 5.63197 17.0348 5.3335 16.6667 5.3335Z"
    fill="#91D5FF"/>
  <path d="M13.3333 14.6694H14.6667" stroke="black" stroke-opacity="0.85" stroke-width="2" stroke-linecap="round"
        stroke-linejoin="round"/>
  <path d="M8 14.6694H9.33333" stroke="black" stroke-opacity="0.85" stroke-width="2" stroke-linecap="round"
        stroke-linejoin="round"/>
  <path d="M13.3333 11.6694H14.6667" stroke="black" stroke-opacity="0.85" stroke-width="2" stroke-linecap="round"
        stroke-linejoin="round"/>
  <path d="M13.3333 8.66943H14.6667" stroke="black" stroke-opacity="0.85" stroke-width="2" stroke-linecap="round"
        stroke-linejoin="round"/>
  <path
    d="M12.6667 14.6691C12.6667 14.3009 12.9651 14.0024 13.3333 14.0024H14.6667C15.0348 14.0024 15.3333 14.3009 15.3333 14.6691C15.3333 15.0373 15.0348 15.3358 14.6667 15.3358H13.3333C12.9651 15.3358 12.6667 15.0373 12.6667 14.6691Z"
    fill="#E478FA"/>
  <path
    d="M12.6667 11.6691C12.6667 11.3009 12.9651 11.0024 13.3333 11.0024H14.6667C15.0348 11.0024 15.3333 11.3009 15.3333 11.6691C15.3333 12.0373 15.0348 12.3358 14.6667 12.3358H13.3333C12.9651 12.3358 12.6667 12.0373 12.6667 11.6691Z"
    fill="#E478FA"/>
  <path
    d="M13.3333 8.00244C12.9651 8.00244 12.6667 8.30092 12.6667 8.66911C12.6667 9.0373 12.9651 9.33577 13.3333 9.33577H14.6667C15.0348 9.33577 15.3333 9.0373 15.3333 8.66911C15.3333 8.30092 15.0348 8.00244 14.6667 8.00244H13.3333Z"
    fill="#E478FA"/>
  <path
    d="M9.99999 14.6691C9.99999 15.0373 9.70151 15.3358 9.33332 15.3358H7.99999C7.6318 15.3358 7.33332 15.0373 7.33332 14.6691C7.33332 14.3009 7.6318 14.0024 7.99999 14.0024H9.33332C9.70151 14.0024 9.99999 14.3009 9.99999 14.6691Z"
    fill="#E478FA"/>
  <path fill-rule="evenodd" clip-rule="evenodd"
        d="M11.3333 4.6665C10.5969 4.6665 9.99999 5.26346 9.99999 5.99984V10.6665H7.33332C6.59694 10.6665 5.99999 11.2635 5.99999 11.9998V17.3332H5.33332C4.96513 17.3332 4.66666 17.6316 4.66666 17.9998C4.66666 18.368 4.96513 18.6665 5.33332 18.6665H18.6667C19.0348 18.6665 19.3333 18.368 19.3333 17.9998C19.3333 17.6316 19.0348 17.3332 18.6667 17.3332H18V5.99984C18 5.26346 17.403 4.6665 16.6667 4.6665H11.3333ZM16.6667 17.3332V5.99984H11.3333V17.3332H16.6667ZM9.99999 11.9998H7.33332V14.6691V17.3332H9.99999V14.6691V11.9998Z"
        fill="#E478FA"/>
  <path fill-rule="evenodd" clip-rule="evenodd"
        d="M16.6667 6V17.3333H11.3333V6H16.6667ZM12.6667 14.6693C12.6667 14.3011 12.9652 14.0026 13.3333 14.0026H14.6667C15.0349 14.0026 15.3333 14.3011 15.3333 14.6693C15.3333 15.0375 15.0349 15.3359 14.6667 15.3359H13.3333C12.9652 15.3359 12.6667 15.0375 12.6667 14.6693ZM12.6667 11.6693C12.6667 11.3011 12.9652 11.0026 13.3333 11.0026H14.6667C15.0349 11.0026 15.3333 11.3011 15.3333 11.6693C15.3333 12.0375 15.0349 12.3359 14.6667 12.3359H13.3333C12.9652 12.3359 12.6667 12.0375 12.6667 11.6693ZM13.3333 8.0026C12.9652 8.0026 12.6667 8.30108 12.6667 8.66927C12.6667 9.03746 12.9652 9.33594 13.3333 9.33594H14.6667C15.0349 9.33594 15.3333 9.03746 15.3333 8.66927C15.3333 8.30108 15.0349 8.0026 14.6667 8.0026H13.3333Z"
        fill="#FBE8FF"/>
  <path
    d="M10 12H7.33334V14.6693C7.33334 14.3011 7.63182 14.0026 8.00001 14.0026H9.33334C9.70153 14.0026 10 14.3011 10 14.6693V12Z"
    fill="#FBE8FF"/>
  <path
    d="M7.33334 14.6693V17.3333H10V14.6693C10 15.0375 9.70153 15.3359 9.33334 15.3359H8.00001C7.63182 15.3359 7.33334 15.0375 7.33334 14.6693Z"
    fill="#FBE8FF"/>
</svg>
