<svg width="24" height="24" viewBox="0 0 24 24" fill="none" xmlns="http://www.w3.org/2000/svg">
  <rect width="24" height="24" rx="6" fill="#EDFCF2"/>
  <path
    fill-rule="evenodd"
    clip-rule="evenodd"
    d="M12 5C12.3682 5 12.6667 5.29848 12.6667 5.66667V6.66667C12.6667 7.03486 12.3682 7.33333 12 7.33333C11.6318 7.33333 11.3333 7.03486 11.3333 6.66667V5.66667C11.3333 5.29848 11.6318 5 12 5ZM7.60759 6.5987C7.88964 6.36203 8.31014 6.39881 8.54681 6.68086L9.18961 7.4469C9.42628 7.72895 9.3895 8.14945 9.10745 8.38613C8.8254 8.6228 8.4049 8.58601 8.16823 8.30396L7.52543 7.53792C7.28876 7.25587 7.32554 6.83537 7.60759 6.5987ZM16.3924 6.5987C16.6744 6.83537 16.7112 7.25587 16.4745 7.53792L15.8317 8.30396C15.5951 8.58601 15.1746 8.6228 14.8925 8.38612C14.6105 8.14945 14.5737 7.72895 14.8104 7.4469L15.4532 6.68086C15.6898 6.39881 16.1103 6.36203 16.3924 6.5987ZM12 9.66667C10.5272 9.66667 9.33332 10.8606 9.33332 12.3333V17H14.6667V12.3333C14.6667 10.8606 13.4727 9.66667 12 9.66667ZM16 17V12.3333C16 10.1242 14.2091 8.33333 12 8.33333C9.79086 8.33333 7.99999 10.1242 7.99999 12.3333V17H5.99999C5.6318 17 5.33332 17.2985 5.33332 17.6667C5.33332 18.0349 5.6318 18.3333 5.99999 18.3333H18.3333C18.7015 18.3333 19 18.0349 19 17.6667C19 17.2985 18.7015 17 18.3333 17H16ZM5.27046 10.6467C5.33439 10.2841 5.68016 10.042 6.04276 10.106L7.02756 10.2796C7.39016 10.3435 7.63228 10.6893 7.56835 11.0519C7.50442 11.4145 7.15865 11.6566 6.79605 11.5927L5.81125 11.419C5.44865 11.3551 5.20653 11.0093 5.27046 10.6467ZM18.7295 10.6467C18.7935 11.0093 18.5514 11.3551 18.1888 11.419L17.2039 11.5927C16.8413 11.6566 16.4956 11.4145 16.4316 11.0519C16.3677 10.6893 16.6098 10.3436 16.9724 10.2796L17.9572 10.106C18.3198 10.042 18.6656 10.2841 18.7295 10.6467Z"
    fill="#2ED3B7"/>
  <path
    d="M9.33334 12.3332C9.33334 10.8604 10.5273 9.6665 12 9.6665C13.4728 9.6665 14.6667 10.8604 14.6667 12.3332V16.9998H9.33334V12.3332Z"
    fill="#CCFBEF"/>
</svg>
