<svg width="24" height="24" viewBox="0 0 24 24" fill="none" xmlns="http://www.w3.org/2000/svg">
  <rect width="24" height="24" rx="6" fill="#FEF6EE"/>
  <path
    d="M11.9806 4.6665L12.0637 4.66953L13.3454 4.7926C13.7119 4.8278 13.9805 5.15344 13.9453 5.51994C13.9126 5.86027 13.6295 6.11616 13.2958 6.1228L13.2179 6.11983L12.666 6.06715L12.6668 8.73318C13.0923 8.81958 13.4884 8.98705 13.8383 9.21877L15.7449 7.31171C15.6015 7.19701 15.4529 7.08884 15.2995 6.98761C14.9922 6.78482 14.9074 6.37131 15.1102 6.06399C15.313 5.75668 15.7265 5.67194 16.0338 5.87472C16.428 6.13485 16.7964 6.43242 17.1333 6.76279C17.4525 7.07567 17.7428 7.41711 18.0002 7.78267C18.2121 8.08372 18.1399 8.4996 17.8389 8.71158C17.5378 8.92355 17.1219 8.85134 16.91 8.55029C16.8391 8.44972 16.7653 8.35137 16.6885 8.25538L14.781 10.1615C15.0127 10.5114 15.1802 10.9075 15.2666 11.333L17.9635 11.3333C17.9419 11.1375 17.9107 10.9435 17.8702 10.752C17.794 10.3918 18.0243 10.038 18.3845 9.9618C18.7448 9.88563 19.0985 10.1159 19.1747 10.4761C19.2588 10.874 19.3099 11.2799 19.3269 11.6908L19.3333 11.9998C19.3333 12.527 19.2776 13.0475 19.168 13.5549C19.0902 13.9147 18.7354 14.1435 18.3755 14.0657C18.0157 13.988 17.7869 13.6332 17.8647 13.2733C17.9078 13.0736 17.9408 12.8714 17.9634 12.6671L15.2665 12.6673C15.18 13.0926 15.0126 13.4884 14.781 13.8381L16.6821 15.7389C16.7774 15.623 16.8684 15.5035 16.9549 15.3807C17.1668 15.0796 17.5827 15.0074 17.8838 15.2194C18.1848 15.4313 18.2571 15.8472 18.0451 16.1483C17.7877 16.5139 17.4974 16.8554 17.1783 17.1682C16.8412 17.4987 16.4729 17.7962 16.0787 18.0563C15.7714 18.259 15.3579 18.1743 15.1551 17.8669C14.9524 17.5596 15.0371 17.1461 15.3445 16.9433C15.4755 16.8569 15.603 16.7654 15.7267 16.6691L13.8383 14.7808C13.4884 15.0126 13.0923 15.18 12.6668 15.2664L12.6665 17.9633C12.8329 17.9449 12.9979 17.9197 13.1613 17.8876C13.5226 17.8169 13.8729 18.0524 13.9437 18.4137C14.0145 18.775 13.7789 19.1253 13.4176 19.1961C12.9537 19.287 12.4796 19.3331 12 19.3331C11.5204 19.3331 11.0463 19.287 10.5823 19.1961C10.221 19.1253 9.98547 18.775 10.0563 18.4137C10.127 18.0524 10.4773 17.8169 10.8387 17.8876C11.0019 17.9196 11.1667 17.9448 11.3328 17.9632L11.3325 15.2663C10.9072 15.1799 10.5114 15.0124 10.1617 14.7809L8.25486 16.6878C8.39832 16.8026 8.54701 16.9108 8.70047 17.012C9.0078 17.2148 9.09255 17.6283 8.88978 17.9356C8.68701 18.243 8.2735 18.3277 7.96617 18.1249C7.57205 17.8649 7.20376 17.5674 6.86658 17.2368C6.54729 16.9238 6.25707 16.5823 5.99981 16.2169C5.78787 15.9158 5.86013 15.4999 6.16121 15.288C6.46228 15.0761 6.87816 15.1483 7.0901 15.4494C7.16092 15.55 7.2348 15.6484 7.31161 15.7444L9.21895 13.8381C8.98735 13.4884 8.81994 13.0926 8.7335 12.6673L6.0366 12.6669C6.05821 12.8625 6.08933 13.0563 6.1298 13.2477C6.20595 13.608 5.97565 13.9617 5.61542 14.0379C5.2552 14.114 4.90144 13.8837 4.82529 13.5235C4.72012 13.026 4.66666 12.5162 4.66666 11.9998C4.66666 11.4835 4.72012 10.9736 4.82529 10.4762C4.90145 10.1159 5.25521 9.88564 5.61543 9.9618C5.97566 10.038 6.20595 10.3917 6.12979 10.7519C6.08928 10.9436 6.05814 11.1375 6.03652 11.3334L8.73336 11.333C8.81976 10.9075 8.98723 10.5114 9.21895 10.1615L7.31147 8.2554C7.2347 8.35137 7.16087 8.44971 7.09008 8.55025C6.87813 8.85132 6.46224 8.92356 6.16118 8.7116C5.86012 8.49965 5.78788 8.08377 5.99983 7.7827C6.25716 7.41719 6.54741 7.07574 6.86662 6.76279C7.20376 6.43229 7.57205 6.13475 7.96617 5.87471C8.2735 5.67194 8.68701 5.75669 8.88978 6.06402C9.09255 6.37134 9.0078 6.78485 8.70047 6.98762C8.54702 7.08887 8.39833 7.19708 8.25487 7.31185L10.1617 9.21877C10.5114 8.98717 10.9072 8.81976 11.3325 8.73332L11.333 6.03641C11.1692 6.05451 11.0067 6.07926 10.8458 6.11059C10.4844 6.18097 10.1344 5.94505 10.064 5.58364C9.99364 5.22224 10.2296 4.87222 10.591 4.80184C11.0458 4.71327 11.5105 4.66772 11.9806 4.6665ZM12 9.99981C10.9349 9.99981 10.0642 10.8324 10.0034 11.8823L9.99999 11.9998C9.99999 13.0649 10.8326 13.9356 11.8825 13.9964L12 13.9998C13.1045 13.9998 14 13.1044 14 11.9998C14 10.8953 13.1045 9.99981 12 9.99981Z"
    fill="#F38744"/>
  <path
    d="M12 10C10.9349 10 10.0642 10.8326 10.0034 11.8825L10 12C10 13.0651 10.8326 13.9358 11.8825 13.9966L12 14C13.1045 14 14 13.1045 14 12C14 10.8954 13.1046 10 12 10Z"
    fill="#FDEAD7"/>
</svg>
