<svg width="16" height="16" viewBox="-4 -4 24 24" fill="none" xmlns="http://www.w3.org/2000/svg">
  <path
    fill-rule="evenodd"
    clip-rule="evenodd"
    d="M9.99998 1.99992C9.99998 1.63173 10.2985 1.33325 10.6666 1.33325H14C14.3682 1.33325 14.6666 1.63173 14.6666 1.99992V5.33325C14.6666 5.70144 14.3682 5.99992 14 5.99992H10.6666C10.2985 5.99992 9.99998 5.70144 9.99998 5.33325V1.99992Z"
    fill="#EEAAFD"/>
  <path
    fill-rule="evenodd"
    clip-rule="evenodd"
    d="M9.99998 10.6666C9.99998 10.2984 10.2985 9.99992 10.6666 9.99992H14C14.3682 9.99992 14.6666 10.2984 14.6666 10.6666V13.9999C14.6666 14.3681 14.3682 14.6666 14 14.6666H10.6666C10.2985 14.6666 9.99998 14.3681 9.99998 13.9999V10.6666Z"
    fill="#EEAAFD"/>
  <path
    fill-rule="evenodd"
    clip-rule="evenodd"
    d="M1.99998 9.99992C1.63179 9.99992 1.33331 10.2984 1.33331 10.6666V13.9999C1.33331 14.3681 1.63179 14.6666 1.99998 14.6666H5.33331C5.7015 14.6666 5.99998 14.3681 5.99998 13.9999V10.6666C5.99998 10.2984 5.7015 9.99992 5.33331 9.99992H1.99998Z"
    fill="#EEAAFD"/>
  <path
    d="M2.66665 7.33325C2.29846 7.33325 1.99998 7.63173 1.99998 7.99992C1.99998 8.36811 2.29846 8.66659 2.66665 8.66659H7.33331V10.3333C7.33331 10.7014 7.63179 10.9999 7.99998 10.9999C8.36817 10.9999 8.66665 10.7014 8.66665 10.3333V8.66659H9.99998C10.3682 8.66659 10.6666 8.36811 10.6666 7.99992C10.6666 7.63173 10.3682 7.33325 9.99998 7.33325H8.66665V5.66659C8.66665 5.2984 8.36817 4.99992 7.99998 4.99992C7.63179 4.99992 7.33331 5.2984 7.33331 5.66659V7.33325H2.66665Z"
    fill="#EEAAFD"/>
  <path
    d="M12 7.99992C12 7.63173 12.2985 7.33325 12.6666 7.33325H13.3333C13.7015 7.33325 14 7.63173 14 7.99992C14 8.36811 13.7015 8.66659 13.3333 8.66659H12.6666C12.2985 8.66659 12 8.36811 12 7.99992Z"
    fill="#EEAAFD"/>
  <path
    d="M8.66665 12.3333C8.66665 11.9651 8.36817 11.6666 7.99998 11.6666C7.63179 11.6666 7.33331 11.9651 7.33331 12.3333V12.9999C7.33331 13.3681 7.63179 13.6666 7.99998 13.6666C8.36817 13.6666 8.66665 13.3681 8.66665 12.9999V12.3333Z"
    fill="#EEAAFD"/>
  <path
    d="M8.66665 2.66659C8.66665 2.2984 8.36817 1.99992 7.99998 1.99992C7.63179 1.99992 7.33331 2.2984 7.33331 2.66659V3.33325C7.33331 3.70144 7.63179 3.99992 7.99998 3.99992C8.36817 3.99992 8.66665 3.70144 8.66665 3.33325V2.66659Z"
    fill="#EEAAFD"/>
  <path
    fill-rule="evenodd"
    clip-rule="evenodd"
    d="M1.99998 1.33325C1.63179 1.33325 1.33331 1.63173 1.33331 1.99992V5.33325C1.33331 5.70144 1.63179 5.99992 1.99998 5.99992H5.33331C5.7015 5.99992 5.99998 5.70144 5.99998 5.33325V1.99992C5.99998 1.63173 5.7015 1.33325 5.33331 1.33325H1.99998Z"
    fill="#EEAAFD"/>
</svg>
