<svg width="16" height="16" viewBox="-4 -4 24 24" fill="none" xmlns="http://www.w3.org/2000/svg">
  <path
    d="M14.6666 8.66659C15.3701 8.66659 15.594 9.61493 14.9648 9.92954L14.9184 9.95521C14.8159 10.0165 14.6586 10.1374 14.4983 10.3178C14.1851 10.6701 14 11.1098 14 11.6666C14 12.2234 14.1851 12.663 14.4983 13.0153C14.6853 13.2258 14.8682 13.3553 14.9648 13.4036L15.0336 13.4427C15.5761 13.7898 15.3431 14.6666 14.6666 14.6666H2.66665C2.56315 14.6666 2.46108 14.6425 2.36851 14.5962C2.13175 14.4778 1.81463 14.2532 1.50171 13.9012C0.981548 13.316 0.666648 12.5681 0.666648 11.6666C0.666648 10.7651 0.981548 10.0172 1.50171 9.43201C1.81463 9.07997 2.13175 8.85535 2.36851 8.73697C2.46108 8.69068 2.56315 8.66659 2.66665 8.66659H14.6666ZM13.3333 1.33325C13.4368 1.33325 13.5389 1.35735 13.6315 1.40363C13.8682 1.52201 14.1853 1.74663 14.4983 2.09868C15.0184 2.68386 15.3333 3.43174 15.3333 4.33325C15.3333 5.23476 15.0184 5.98265 14.4983 6.56783C14.1853 6.91987 13.8682 7.14449 13.6315 7.26287C13.5389 7.30916 13.4368 7.33325 13.3333 7.33325H1.33331C0.629831 7.33325 0.405958 6.38491 1.03517 6.0703L1.08161 6.04463C1.18409 5.98335 1.34136 5.8624 1.50171 5.68201C1.81488 5.32969 1.99998 4.89008 1.99998 4.33325C1.99998 3.77643 1.81488 3.33681 1.50171 2.98449C1.31463 2.77404 1.13175 2.64449 1.03517 2.5962L0.966335 2.55718C0.423888 2.21005 0.656888 1.33325 1.33331 1.33325H13.3333Z"
    fill="#EEAAFD"/>
</svg>
