<svg width="16" height="16" viewBox="-4 -4 24 24" fill="none" xmlns="http://www.w3.org/2000/svg">
  <path
    fill-rule="evenodd"
    clip-rule="evenodd"
    d="M1.33332 1.3335C0.965133 1.3335 0.666656 1.63197 0.666656 2.00016V14.0002C0.666656 14.3684 0.965133 14.6668 1.33332 14.6668H9.99999C10.3682 14.6668 10.6667 14.3684 10.6667 14.0002V2.00016C10.6667 1.63197 10.3682 1.3335 9.99999 1.3335H1.33332ZM3.33332 2.66683V13.3335H4.66666V2.66683H3.33332Z"
    fill="#F7B27A"/>
  <path
    fill-rule="evenodd"
    clip-rule="evenodd"
    d="M12 1.3335C11.6318 1.3335 11.3333 1.63197 11.3333 2.00016V12.6668C11.3333 12.8436 11.4036 13.0132 11.5286 13.1382L12.8619 14.4716C13.1223 14.7319 13.5444 14.7319 13.8047 14.4716L15.1381 13.1382C15.2631 13.0132 15.3333 12.8436 15.3333 12.6668V2.00016C15.3333 1.63197 15.0348 1.3335 14.6667 1.3335H12ZM12.6667 4.66683V3.3335H14V4.66683H12.6667Z"
    fill="#F7B27A"/>
</svg>
