<svg width="16" height="16" viewBox="-4 -4 24 24" fill="none" xmlns="http://www.w3.org/2000/svg">
  <path
    fill-rule="evenodd" clip-rule="evenodd"
    d="M10 2.00016C10 1.63197 10.2985 1.3335 10.6667 1.3335H14C14.3682 1.3335 14.6667 1.63197 14.6667 2.00016V5.3335C14.6667 5.70169 14.3682 6.00016 14 6.00016H10.6667C10.2985 6.00016 10 5.70169 10 5.3335V2.00016Z"
    fill="#F7B27A"/>
  <path
    fill-rule="evenodd" clip-rule="evenodd"
    d="M10 10.6668C10 10.2986 10.2985 10.0002 10.6667 10.0002H14C14.3682 10.0002 14.6667 10.2986 14.6667 10.6668V14.0002C14.6667 14.3684 14.3682 14.6668 14 14.6668H10.6667C10.2985 14.6668 10 14.3684 10 14.0002V10.6668Z"
    fill="#F7B27A"/>
  <path
    fill-rule="evenodd" clip-rule="evenodd"
    d="M2.00001 10.0002C1.63182 10.0002 1.33334 10.2986 1.33334 10.6668V14.0002C1.33334 14.3684 1.63182 14.6668 2.00001 14.6668H5.33334C5.70153 14.6668 6.00001 14.3684 6.00001 14.0002V10.6668C6.00001 10.2986 5.70153 10.0002 5.33334 10.0002H2.00001Z"
    fill="#F7B27A"/>
  <path
    d="M2.66668 7.3335C2.29849 7.3335 2.00001 7.63197 2.00001 8.00016C2.00001 8.36835 2.29849 8.66683 2.66668 8.66683H7.33334V10.3335C7.33334 10.7017 7.63182 11.0002 8.00001 11.0002C8.3682 11.0002 8.66668 10.7017 8.66668 10.3335V8.66683H10C10.3682 8.66683 10.6667 8.36835 10.6667 8.00016C10.6667 7.63197 10.3682 7.3335 10 7.3335H8.66668V5.66683C8.66668 5.29864 8.3682 5.00016 8.00001 5.00016C7.63182 5.00016 7.33334 5.29864 7.33334 5.66683V7.3335H2.66668Z"
    fill="#F7B27A"/>
  <path
    d="M12 8.00016C12 7.63197 12.2985 7.3335 12.6667 7.3335H13.3333C13.7015 7.3335 14 7.63197 14 8.00016C14 8.36835 13.7015 8.66683 13.3333 8.66683H12.6667C12.2985 8.66683 12 8.36835 12 8.00016Z"
    fill="#F7B27A"/>
  <path
    d="M8.66668 12.3335C8.66668 11.9653 8.3682 11.6668 8.00001 11.6668C7.63182 11.6668 7.33334 11.9653 7.33334 12.3335V13.0002C7.33334 13.3684 7.63182 13.6668 8.00001 13.6668C8.3682 13.6668 8.66668 13.3684 8.66668 13.0002V12.3335Z"
    fill="#F7B27A"/>
  <path
    d="M8.66668 2.66683C8.66668 2.29864 8.3682 2.00016 8.00001 2.00016C7.63182 2.00016 7.33334 2.29864 7.33334 2.66683V3.3335C7.33334 3.70169 7.63182 4.00016 8.00001 4.00016C8.3682 4.00016 8.66668 3.70169 8.66668 3.3335V2.66683Z"
    fill="#F7B27A"/>
  <path
    fill-rule="evenodd"
    clip-rule="evenodd"
    d="M2.00001 1.3335C1.63182 1.3335 1.33334 1.63197 1.33334 2.00016V5.3335C1.33334 5.70169 1.63182 6.00016 2.00001 6.00016H5.33334C5.70153 6.00016 6.00001 5.70169 6.00001 5.3335V2.00016C6.00001 1.63197 5.70153 1.3335 5.33334 1.3335H2.00001Z"
    fill="#F7B27A"/>
</svg>
