<svg width="16" height="16" viewBox="-4 -4 24 24" fill="none" xmlns="http://www.w3.org/2000/svg">
  <path
    fill-rule="evenodd"
    clip-rule="evenodd"
    d="M1.66667 1C1.29848 1 1 1.29848 1 1.66667V7C1 7.36819 1.29848 7.66667 1.66667 7.66667H4V10.6667C4 11.0349 4.29848 11.3333 4.66667 11.3333H8.33333V14.3333C8.33333 14.7015 8.63181 15 9 15H14.3333C14.7015 15 15 14.7015 15 14.3333V9C15 8.63181 14.7015 8.33333 14.3333 8.33333H11.3333V4.66667C11.3333 4.29848 11.0349 4 10.6667 4H7.66667V1.66667C7.66667 1.29848 7.36819 1 7 1H1.66667ZM4 4.66667V6.33333H2.33333V2.33333H6.33333V4H4.66667C4.29848 4 4 4.29848 4 4.66667ZM9.66667 11.3333V13.6667H13.6667V9.66667H11.3333V10.6667C11.3333 11.0349 11.0349 11.3333 10.6667 11.3333H9.66667Z"
    fill="#F7B27A"/>
</svg>
