<svg width="16" height="16" viewBox="-4 -4 24 24" fill="none" xmlns="http://www.w3.org/2000/svg">
  <path
    d="M13 1.33325C13.8836 1.33325 14.6067 2.02094 14.6631 2.89033L14.6666 2.99992V12.9999C14.6666 13.8836 13.979 14.6066 13.1096 14.663L13 14.6666H2.99998C2.11632 14.6666 1.39329 13.9789 1.33686 13.1095L1.33331 12.9999V2.99992C1.33331 2.11626 2.021 1.39323 2.8904 1.3368L2.99998 1.33325H13ZM13 2.66659H2.99998C2.83634 2.66659 2.70024 2.7845 2.67202 2.94L2.66665 2.99992V12.9999C2.66665 13.1636 2.78456 13.2997 2.94006 13.3279L2.99998 13.3333H13C13.1636 13.3333 13.2997 13.2153 13.3279 13.0598L13.3333 12.9999V2.99992C13.3333 2.81582 13.1841 2.66659 13 2.66659ZM12.2626 4.05382C12.5039 4.15724 12.6597 4.39123 12.6664 4.649L12.6639 4.72694L12.3306 8.39361C12.291 8.82896 11.8502 9.10905 11.4392 8.95994C9.21616 8.15325 6.7838 8.15325 4.56072 8.95994C4.17396 9.10028 3.76072 8.86043 3.68045 8.46877L3.66938 8.39361L3.33605 4.72694C3.3099 4.43933 3.47192 4.16759 3.73737 4.05382C6.2384 2.98195 9.76156 2.98195 12.2626 4.05382ZM7.5278 5.59256C7.32419 5.32806 6.95015 5.25236 6.65698 5.42826C6.34126 5.61769 6.23889 6.0272 6.42832 6.34292L6.86975 7.07772C7.37679 7.02723 7.88637 7.0108 8.39507 7.02843L7.57164 5.65692L7.5278 5.59256Z"
    fill="#5FE9D0"/>
</svg>
