<svg width="24" height="24" viewBox="0 0 24 24" fill="none" xmlns="http://www.w3.org/2000/svg">
  <rect width="24" height="24" rx="6" fill="#F4F3FF"/>
  <path
    fill-rule="evenodd"
    clip-rule="evenodd"
    d="M9.33333 5C9.70152 5 10 5.29848 10 5.66667V6H14V5.66667C14 5.29848 14.2985 5 14.6667 5C15.0349 5 15.3333 5.29848 15.3333 5.66667V6H17.6667C18.4031 6 19 6.59696 19 7.33333V17.6667C19 18.4031 18.4031 19 17.6667 19H6.33333C5.59696 19 5 18.4031 5 17.6667V7.33333C5 6.59695 5.59695 6 6.33333 6H8.66667V5.66667C8.66667 5.29848 8.96514 5 9.33333 5ZM8.66667 7.33333H6.33333V9.66667H17.6667V7.33333H15.3333V8.33333C15.3333 8.70152 15.0349 9 14.6667 9C14.2985 9 14 8.70152 14 8.33333V7.33333H10V8.33333C10 8.70152 9.70152 9 9.33333 9C8.96514 9 8.66667 8.70152 8.66667 8.33333V7.33333ZM17.6667 11H6.33333V17.6667H17.6667V11ZM15.8047 11.8619C16.0651 12.1223 16.0651 12.5444 15.8047 12.8047L11.8047 16.8047C11.5444 17.0651 11.1223 17.0651 10.8619 16.8047L8.86193 14.8047C8.60158 14.5444 8.60158 14.1223 8.86193 13.8619C9.12228 13.6016 9.54439 13.6016 9.80474 13.8619L11.3333 15.3905L14.8619 11.8619C15.1223 11.6016 15.5444 11.6016 15.8047 11.8619Z"
    fill="#9B8AFB"/>
  <path
    fill-rule="evenodd"
    clip-rule="evenodd"
    d="M6.33334 11H17.6667V17.6667H6.33334V11ZM15.8047 11.8619C16.0651 12.1223 16.0651 12.5444 15.8047 12.8047L11.8047 16.8047C11.5444 17.0651 11.1223 17.0651 10.8619 16.8047L8.86194 14.8047C8.60159 14.5444 8.60159 14.1223 8.86194 13.8619C9.12229 13.6016 9.5444 13.6016 9.80475 13.8619L11.3333 15.3905L14.8619 11.8619C15.1223 11.6016 15.5444 11.6016 15.8047 11.8619Z"
    fill="#EBE9FE"/>
</svg>
