<svg width="16" height="16" viewBox="-4 -4 24 24" fill="none" xmlns="http://www.w3.org/2000/svg">
  <path d="M9.99999 7.33317H11.3333V10.6665H9.99999V7.33317Z" fill="#BDB4FE"/>
  <path
    fill-rule="evenodd"
    clip-rule="evenodd"
    d="M6.33332 1.33317C6.33332 0.964981 6.03485 0.666504 5.66666 0.666504C5.29847 0.666504 4.99999 0.964981 4.99999 1.33317V1.99984H1.33332C0.965133 1.99984 0.666656 2.29831 0.666656 2.6665V14.6665C0.666656 15.0347 0.965133 15.3332 1.33332 15.3332H14.6667C15.0348 15.3332 15.3333 15.0347 15.3333 14.6665V2.6665C15.3333 2.29831 15.0348 1.99984 14.6667 1.99984H11V1.33317C11 0.964981 10.7015 0.666504 10.3333 0.666504C9.96513 0.666504 9.66666 0.964981 9.66666 1.33317V1.99984H6.33332V1.33317ZM3.99999 5.99984C3.6318 5.99984 3.33332 6.29831 3.33332 6.6665C3.33332 7.03469 3.6318 7.33317 3.99999 7.33317H5.99999V8.33317H4.66666C4.29847 8.33317 3.99999 8.63165 3.99999 8.99984C3.99999 9.36803 4.29847 9.6665 4.66666 9.6665H5.99999V10.6665H3.99999C3.6318 10.6665 3.33332 10.965 3.33332 11.3332C3.33332 11.7014 3.6318 11.9998 3.99999 11.9998H6.66666C7.03485 11.9998 7.33332 11.7014 7.33332 11.3332V6.6665C7.33332 6.29831 7.03485 5.99984 6.66666 5.99984H3.99999ZM9.33332 5.99984C8.96513 5.99984 8.66666 6.29831 8.66666 6.6665V11.3332C8.66666 11.7014 8.96513 11.9998 9.33332 11.9998H12C12.3682 11.9998 12.6667 11.7014 12.6667 11.3332V6.6665C12.6667 6.29831 12.3682 5.99984 12 5.99984H9.33332Z"
    fill="#BDB4FE"/>
</svg>
