<svg width="16" height="16" viewBox="-4 -4 24 24" fill="none" xmlns="http://www.w3.org/2000/svg">
  <path
    fill-rule="evenodd"
    clip-rule="evenodd"
    d="M0.666672 3.33333C0.666672 2.59695 1.26363 2 2.00001 2H14C14.7364 2 15.3333 2.59695 15.3333 3.33333V12.6667C15.3333 13.403 14.7364 14 14 14H2.00001C1.26363 14 0.666672 13.403 0.666672 12.6667V3.33333ZM11.3333 8.33333C11.3333 7.96514 11.0349 7.66667 10.6667 7.66667C10.2985 7.66667 10 7.96514 10 8.33333V10.6667C10 11.0349 10.2985 11.3333 10.6667 11.3333C11.0349 11.3333 11.3333 11.0349 11.3333 10.6667V8.33333ZM8.66667 5.33333C8.66667 4.96514 8.36819 4.66667 8 4.66667C7.63181 4.66667 7.33334 4.96514 7.33334 5.33333V10.6667C7.33334 11.0349 7.63181 11.3333 8 11.3333C8.36819 11.3333 8.66667 11.0349 8.66667 10.6667V5.33333ZM6 6.66667C6 6.29848 5.70153 6 5.33334 6C4.96515 6 4.66667 6.29848 4.66667 6.66667V10.6667C4.66667 11.0349 4.96515 11.3333 5.33334 11.3333C5.70153 11.3333 6 11.0349 6 10.6667V6.66667Z"
    fill="#84ADFF"/>
</svg>
