<svg width="16" height="16" viewBox="-4 -4 24 24" fill="none" xmlns="http://www.w3.org/2000/svg">
  <path
    fill-rule="evenodd"
    clip-rule="evenodd"
    d="M7.18761 1.09431C7.31401 0.936706 7.58014 0.666504 7.99999 0.666504C8.42673 0.666504 8.69112 0.944281 8.81551 1.10781C8.9434 1.27594 9.04184 1.47982 9.1074 1.61558L9.11438 1.63005C9.14178 1.68678 9.16527 1.73542 9.18622 1.77764C9.24351 1.73765 9.30908 1.68941 9.38773 1.63155L9.39727 1.62453C9.52981 1.52702 9.7147 1.39099 9.90261 1.29654C10.0688 1.21299 10.4235 1.06407 10.8071 1.22317C11.2151 1.39234 11.3442 1.77337 11.3903 1.96425C11.44 2.16972 11.4509 2.39932 11.4584 2.55636L11.4587 2.56335C11.462 2.63239 11.4649 2.69243 11.4679 2.74453C11.53 2.72791 11.6009 2.70754 11.684 2.68366L11.6972 2.67984C11.8581 2.63362 12.0832 2.56891 12.2957 2.54596C12.4815 2.5259 12.8808 2.50979 13.1854 2.81439C13.5157 3.14461 13.46 3.57741 13.4258 3.75723C13.3854 3.96902 13.3002 4.19259 13.2396 4.35172L13.2366 4.35946C13.2121 4.42373 13.1905 4.48068 13.1716 4.53179C13.2274 4.53481 13.2899 4.53752 13.3603 4.54059L13.3737 4.54117C13.5473 4.54872 13.7896 4.55927 14.0032 4.60668C14.1828 4.64653 14.5994 4.76528 14.7766 5.19266C14.9551 5.62305 14.7471 5.9846 14.6227 6.15063C14.5013 6.3125 14.3356 6.45746 14.2295 6.55032L14.2161 6.56197C14.1934 6.58184 14.1725 6.6002 14.1532 6.61726C14.2133 6.65942 14.2819 6.70546 14.3606 6.7583L14.403 6.78682C14.5578 6.89084 14.7605 7.02798 14.9235 7.17922C15.0589 7.30484 15.3333 7.58678 15.3333 7.99982C15.3333 8.51246 14.921 8.77047 14.7653 8.85725C14.569 8.96672 14.3293 9.04842 14.1579 9.10686L14.1459 9.11098C14.1035 9.12542 14.0641 9.13886 14.0273 9.15154C14.069 9.1961 14.1151 9.24451 14.1658 9.29774L14.1713 9.30362C14.3042 9.44316 14.4805 9.62825 14.6083 9.81299C14.6741 9.90825 14.7513 10.0369 14.7982 10.189C14.8468 10.3465 14.8746 10.5707 14.7766 10.807C14.5994 11.2344 14.1828 11.3531 14.0032 11.393C13.7896 11.4404 13.5472 11.451 13.3737 11.4585L13.3598 11.4591C13.2896 11.4622 13.2273 11.4649 13.1716 11.4679C13.1905 11.519 13.2121 11.5759 13.2366 11.6402L13.2396 11.648C13.3002 11.8071 13.3854 12.0307 13.4258 12.2425C13.46 12.4223 13.5157 12.8551 13.1854 13.1853C12.9132 13.4575 12.569 13.4829 12.3695 13.476C12.1665 13.4689 11.957 13.4214 11.8156 13.3893L11.8022 13.3862C11.7097 13.3652 11.6374 13.3488 11.5772 13.3372C11.5641 13.3975 11.5507 13.4706 11.5338 13.5628L11.5296 13.5858C11.503 13.7314 11.4638 13.9455 11.3897 14.1375C11.3179 14.3236 11.1608 14.6299 10.8072 14.7765C10.3821 14.9527 10.0177 14.7495 9.85562 14.6375C9.68674 14.5208 9.53031 14.3599 9.42575 14.2523L9.41532 14.2416C9.38106 14.2064 9.35047 14.175 9.32281 14.147C9.28798 14.2028 9.24979 14.2664 9.2059 14.3395L9.18504 14.3743C9.09286 14.5278 8.9677 14.7353 8.82422 14.9031C8.70261 15.0453 8.4253 15.3332 7.99999 15.3332C7.55097 15.3332 7.28239 15.0185 7.16854 14.862C7.04021 14.6856 6.93764 14.47 6.86597 14.3193L6.85674 14.2999C6.82883 14.2412 6.80422 14.1895 6.78181 14.1436C6.73637 14.1822 6.68536 14.2268 6.62662 14.2783L6.61975 14.2843C6.49422 14.3943 6.31806 14.5486 6.13691 14.6587C5.98027 14.754 5.60905 14.9491 5.19287 14.7765C4.77477 14.6031 4.65096 14.2039 4.60816 14.0188C4.5597 13.8093 4.54898 13.5733 4.54146 13.4079L4.54097 13.3971C4.53779 13.3272 4.53501 13.2661 4.53195 13.212C4.47489 13.2303 4.4104 13.2519 4.33617 13.2767L4.32809 13.2794C4.1682 13.333 3.94375 13.4082 3.73144 13.44C3.54814 13.4674 3.13197 13.5027 2.81455 13.1853C2.48938 12.8601 2.53682 12.4339 2.56846 12.2526C2.60546 12.0405 2.68675 11.8166 2.74463 11.6572L2.74718 11.6501C2.77202 11.5817 2.79385 11.5216 2.81263 11.4679C2.75767 11.4649 2.69602 11.4621 2.62615 11.4591L2.62533 11.459L2.61274 11.4585C2.44239 11.4509 2.20259 11.4403 1.99064 11.3925C1.80896 11.3515 1.39907 11.2308 1.22332 10.807C1.03772 10.3594 1.28234 9.97224 1.38325 9.82857C1.50705 9.65231 1.6775 9.4813 1.80024 9.35815L1.80863 9.34973C1.85319 9.30502 1.8933 9.26471 1.92934 9.22789C1.88264 9.20654 1.83101 9.18343 1.77409 9.15795L1.75416 9.14903C1.58916 9.07515 1.36002 8.97255 1.17397 8.84645C1.02246 8.74375 0.666656 8.47341 0.666656 7.99982C0.666656 7.56671 0.963178 7.29229 1.10996 7.17322C1.28086 7.03459 1.49142 6.91686 1.64406 6.83174L1.67343 6.81536C1.74227 6.77699 1.80228 6.74353 1.85502 6.71307C1.82282 6.67919 1.78623 6.6414 1.74459 6.59849L1.73546 6.58908C1.62705 6.4774 1.4686 6.31418 1.35435 6.14111C1.24875 5.98113 1.04835 5.61463 1.22332 5.19267C1.40412 4.75666 1.83769 4.64271 2.01186 4.60553C2.22966 4.55904 2.47852 4.54865 2.66024 4.54106L2.67565 4.54041C2.7465 4.53746 2.81002 4.53481 2.86737 4.53184C2.84868 4.48711 2.82776 4.43803 2.80458 4.38372L2.80061 4.37441C2.73296 4.21592 2.63798 3.99339 2.58931 3.78234C2.54886 3.60697 2.47131 3.15761 2.81454 2.81438C3.09653 2.53241 3.46554 2.51779 3.65341 2.52363C3.86508 2.53022 4.09029 2.57519 4.25304 2.60776L4.27723 2.6126C4.3778 2.63274 4.46081 2.64937 4.53242 2.66148C4.53534 2.61594 4.53814 2.56294 4.54142 2.50014L4.54189 2.49122C4.54929 2.34924 4.56068 2.13077 4.61303 1.93216C4.66617 1.73057 4.80533 1.38385 5.19283 1.22317C5.5782 1.06338 5.93043 1.21345 6.09831 1.30082C6.28281 1.39683 6.46209 1.53449 6.58826 1.63137L6.59336 1.63528C6.66741 1.69213 6.72925 1.73961 6.78252 1.77858C6.80714 1.73311 6.83477 1.6803 6.86733 1.61807L6.87753 1.59859C6.94908 1.46185 7.05473 1.25998 7.18761 1.09431ZM9.66666 6.33317C8.5621 6.33317 7.66666 7.22861 7.66666 8.33317C7.66666 9.43777 8.56211 10.3332 9.66666 10.3332C10.7712 10.3332 11.6667 9.43777 11.6667 8.33317C11.6667 7.22861 10.7712 6.33317 9.66666 6.33317ZM5.49999 8.6665C5.96022 8.6665 6.33332 8.2934 6.33332 7.83317C6.33332 7.37294 5.96022 6.99984 5.49999 6.99984C5.03976 6.99984 4.66666 7.37294 4.66666 7.83317C4.66666 8.2934 5.03976 8.6665 5.49999 8.6665Z"
    fill="#84ADFF"/>
</svg>
