<svg width="16" height="16" viewBox="-4 -4 24 24" fill="none" xmlns="http://www.w3.org/2000/svg">
  <path
    d="M7.83254 1.0209C8.18915 1.11254 8.40394 1.47592 8.3123 1.83252C7.96762 3.17376 7.96762 4.12289 8.2558 4.66716C8.30706 4.76398 8.36764 4.85965 8.45173 4.97707L8.77558 5.40382C8.84799 5.49889 8.90589 5.578 8.95967 5.65663C9.64394 6.65723 9.49944 7.58963 8.28829 8.61299C8.21883 8.67167 8.14859 8.72728 8.07755 8.77985C6.98916 9.58527 6.00693 9.6356 4.54032 9.26619L3.8466 9.08454L3.65664 9.03968L3.56194 9.02114L3.48392 9.00984L3.38152 9.00304L3.34748 9.0027C2.66058 9.0027 2.00747 9.93484 2.00747 11.3333C2.00747 12.4234 2.20326 13.3146 2.58505 14.0137C2.76151 14.3369 2.64259 14.7419 2.31944 14.9184C1.99629 15.0948 1.59127 14.9759 1.41482 14.6528C0.917759 13.7425 0.674133 12.6336 0.674133 11.3333C0.674133 9.27908 1.80198 7.66936 3.34748 7.66936L3.46614 7.67083L3.57498 7.67639L3.6287 7.68123L3.74063 7.6961C3.76019 7.69923 3.78032 7.70271 3.80123 7.70657L3.93763 7.73461L4.19805 7.79766L4.6993 7.92989C5.91457 8.25531 6.56179 8.24282 7.28442 7.70807C7.3323 7.67264 7.38006 7.63482 7.42774 7.59453C8.12466 7.00568 8.15094 6.83607 7.85908 6.40929L7.77019 6.28518L7.53939 5.98394C7.33087 5.71214 7.19727 5.51739 7.07744 5.29105C6.60147 4.3921 6.60147 3.1329 7.02093 1.50066C7.11257 1.14406 7.47594 0.929261 7.83254 1.0209ZM10.1688 1.02305C10.5242 1.11918 10.7344 1.48524 10.6383 1.84065C10.2244 3.37087 10.3077 4.22899 10.6987 4.4955C10.8212 4.57903 10.849 4.59215 10.9126 4.57298L10.9775 4.54954L11.2036 4.44856C11.9666 4.10366 12.6404 4.0813 13.6595 4.55115C15.8525 5.56229 15.7817 8.90921 14.2454 11.119C12.847 13.1304 10.2102 14.6151 7.91987 14.3281C6.7954 14.1871 5.9106 13.5584 5.16848 12.5858L5.01008 12.3715L4.86441 12.1587L4.71546 11.9243L4.54723 11.6454L4.41465 11.4206L4.40367 11.4414C4.37997 11.493 4.36431 11.5708 4.34911 11.688L4.32777 11.8752C4.26513 12.4724 4.45341 13.1825 4.91624 14.0069C5.09648 14.328 4.98232 14.7343 4.66127 14.9146C4.34021 15.0948 3.93383 14.9807 3.75359 14.6596C3.16566 13.6123 2.90717 12.6374 3.00172 11.7361C3.07339 11.0527 3.3131 10.5622 3.72016 10.274C4.02691 10.0567 4.29608 10.0066 4.67201 10.0066C4.98258 10.0066 5.13508 10.1196 5.30264 10.3404L5.38685 10.4577L5.47537 10.5961L5.83991 11.2073L5.97087 11.414C6.05455 11.5416 6.13412 11.6534 6.22844 11.777C6.77324 12.4909 7.37066 12.9155 8.08569 13.0051C9.82971 13.2237 12.0129 11.9943 13.1506 10.3579C14.2812 8.7317 14.332 6.32948 13.1012 5.76198C12.4941 5.48209 12.2164 5.4713 11.8361 5.62753L11.5294 5.76409L11.4051 5.81342C10.9141 5.99258 10.4499 5.93962 9.94758 5.59717C8.93965 4.91001 8.80411 3.51506 9.35117 1.49252C9.44731 1.13711 9.81336 0.926914 10.1688 1.02305ZM12.0933 8.79777C12.4424 8.9147 12.6306 9.29252 12.5137 9.64165C12.2774 10.3471 11.867 10.9074 11.287 11.3129C10.7251 11.7058 10.0303 11.9314 9.21347 11.9978C8.84649 12.0276 8.52482 11.7543 8.495 11.3873C8.46519 11.0203 8.73851 10.6986 9.10549 10.6688C9.69916 10.6206 10.1681 10.4683 10.5229 10.2202C10.865 9.98101 11.1025 9.65688 11.2494 9.21821C11.3663 8.86908 11.7441 8.68084 12.0933 8.79777Z"
    fill="#5FE9D0"/>
</svg>
