<svg width="16" height="16" viewBox="-4 -4 24 24" fill="none" xmlns="http://www.w3.org/2000/svg">
  <g clip-path="url(#clip0_752_4658)">
    <path
      d="M5.66665 3.66659C6.60798 3.97992 7.03198 5.10592 7.21798 6.34859L4.20265 8.08925L4.86931 9.24392L7.34265 7.81659C7.37331 8.71925 7.33331 9.53859 7.33331 9.99992C7.33331 11.9999 6.66665 13.9999 3.99998 13.9999C1.33331 13.9999 1.33331 13.9999 1.33331 11.3333C1.33331 6.33325 3.66665 2.99992 5.66665 3.66659ZM14.6673 11.3333V11.6239C14.664 13.9999 14.5673 13.9999 12.0006 13.9999C9.33398 13.9999 8.66731 11.9999 8.66731 9.99992C8.66731 9.53925 8.62731 8.71992 8.65798 7.81725L11.1313 9.24392L11.798 8.08925L8.78265 6.34925C8.96865 5.10592 9.39265 3.98059 10.334 3.66659C12.334 2.99992 14.6673 6.33325 14.6673 11.3333V11.3333ZM8.66665 1.33325V7.33325H7.33331V1.33325H8.66665Z"
      fill="#5FE9D0"/>
  </g>
  <defs>
    <clipPath id="clip0_752_4658">
      <rect width="16" height="16" fill="white"/>
    </clipPath>
  </defs>
</svg>
