<svg width="16" height="16" viewBox="-4 -4 24 24" fill="none" xmlns="http://www.w3.org/2000/svg">
  <path
    fill-rule="evenodd"
    clip-rule="evenodd"
    d="M1.33333 3.00016C1.33333 2.07969 2.07952 1.3335 2.99999 1.3335H13C13.9205 1.3335 14.6667 2.0797 14.6667 3.00016V13.0002C14.6667 13.9207 13.9205 14.6668 13 14.6668H2.99999C2.07953 14.6668 1.33333 13.9207 1.33333 13.0002V3.00016ZM11.8047 6.8049C12.0651 6.54455 12.0651 6.12244 11.8047 5.86209C11.5444 5.60174 11.1223 5.60174 10.8619 5.86209L8.81244 7.91157L7.91216 6.33607C7.80907 6.15567 7.62776 6.03364 7.42182 6.00606C7.21587 5.97848 7.00885 6.0485 6.86192 6.19543L4.19526 8.86209C3.93491 9.12244 3.93491 9.54455 4.19526 9.8049C4.45561 10.0653 4.87772 10.0653 5.13807 9.8049L7.18755 7.75542L8.08783 9.33092C8.19092 9.51133 8.37223 9.63335 8.57817 9.66093C8.78412 9.68851 8.99114 9.61849 9.13807 9.47157L11.8047 6.8049Z"
    fill="#84ADFF"/>
</svg>
