<svg width="16" height="16" viewBox="-4 -4 24 24" fill="none" xmlns="http://www.w3.org/2000/svg">
  <path
    fill-rule="evenodd"
    clip-rule="evenodd"
    d="M7.42673 2.66249C7.79249 2.62025 8.05476 2.28951 8.01252 1.92375C7.97028 1.55799 7.63953 1.29572 7.27378 1.33796C4.79406 1.62431 2.75624 3.35371 1.99635 5.66689H1.33335C0.965164 5.66689 0.666687 5.96537 0.666687 6.33356C0.666687 9.33167 2.49948 11.8998 5.10672 13.0097C5.1196 13.0351 5.13672 13.0732 5.15642 13.1278C5.22715 13.3237 5.2979 13.6357 5.3578 14.0878C5.40171 14.4192 5.68434 14.6669 6.01869 14.6669H9.98505C10.3454 14.6669 10.6405 14.3806 10.6514 14.0204C10.6647 13.5832 10.7029 13.2891 10.7503 13.1115C10.7552 13.0929 10.76 13.0769 10.7643 13.0632C13.4401 11.9838 15.3334 9.38081 15.3334 6.33356C15.3334 5.96537 15.0349 5.66689 14.6667 5.66689H14.004C13.7267 4.8226 13.2794 4.0568 12.7034 3.41073C12.4583 3.13592 12.0369 3.11177 11.7621 3.3568C11.4873 3.60183 11.4631 4.02325 11.7082 4.29806C12.0675 4.70108 12.3633 5.16269 12.5799 5.66689H3.4204C4.1163 4.04643 5.62891 2.8701 7.42673 2.66249ZM5.45256 8.48107C5.34588 8.12868 4.97373 7.92948 4.62133 8.03616C4.26893 8.14284 4.06974 8.51499 4.17642 8.86739C4.31337 9.31981 4.50349 9.72381 4.76052 10.0599C4.9934 10.3645 5.27502 10.6395 5.59945 10.8866C5.89231 11.1098 6.31062 11.0533 6.53377 10.7604C6.75691 10.4675 6.70039 10.0492 6.40753 9.82608C6.16631 9.6423 5.97223 9.44956 5.81965 9.24999C5.68231 9.0704 5.55532 8.82055 5.45256 8.48107Z"
    fill="#F7B27A"/>
  <path
    d="M9.54835 1.48897C9.19148 1.39837 8.82873 1.61421 8.73812 1.97108C8.64751 2.32795 8.86336 2.6907 9.22023 2.7813C9.6398 2.88783 10.0385 3.04817 10.4087 3.25486C10.7302 3.43433 11.1363 3.31921 11.3158 2.99772C11.4952 2.67623 11.3801 2.27013 11.0586 2.09065C10.5888 1.8284 10.0822 1.62451 9.54835 1.48897Z"
    fill="#F7B27A"/>
</svg>
