<svg width="16" height="16" viewBox="-4 -4 24 24" fill="none" xmlns="http://www.w3.org/2000/svg">
  <path
    d="M12.469 2.68057L12.5442 2.7009L13.8781 3.1466L14.0816 3.22171L14.1259 3.23991C14.3985 3.35376 14.5948 3.48791 14.7483 3.70092C14.9168 3.93464 14.9735 4.10039 14.9918 4.46758L14.9984 4.68947L15 4.96102V12.6667C15 12.7028 14.9971 12.7382 14.9916 12.7727C14.9971 12.8471 15 12.9232 15 13C15 14.6569 13.6569 16 12 16C10.3431 16 9 14.6569 9 13C9 12.9232 9.00288 12.8471 9.00855 12.7718C9.00689 12.7633 9.00559 12.7539 9.00449 12.7444L9 12.6667C9 12.1144 8.55228 11.6667 8 11.6667C7.48021 11.6667 7.05304 12.0633 7.00458 12.5704L7 12.6667C7 12.7028 6.99714 12.7382 6.99162 12.7727C6.99712 12.8471 7 12.9232 7 13C7 14.6569 5.65685 16 4 16C2.34315 16 1 14.6569 1 13C1 12.9232 1.00288 12.8471 1.00855 12.7718C1.00689 12.7633 1.00559 12.7539 1.00449 12.7444L1 12.6667L1.00035 4.81842L1.00412 4.57292C1.01709 4.12996 1.0679 3.95588 1.25167 3.70092C1.4052 3.48791 1.60151 3.35376 1.87406 3.23991L2.01027 3.18634L2.36755 3.06366L3.45585 2.7009C3.80514 2.58446 4.18269 2.77324 4.29912 3.12253C4.40724 3.44688 4.25219 3.79558 3.94982 3.93697L3.87748 3.96581L2.52756 4.41729L2.33667 4.49068L2.3339 4.79398L2.33299 10.5054C2.80976 10.1862 3.38314 10 4 10C4.92263 10 5.74799 10.4165 6.29831 11.0718C6.72279 10.6172 7.32825 10.3334 8 10.3334C8.67175 10.3334 9.27721 10.6172 9.70295 11.0716C10.252 10.4165 11.0774 10 12 10C12.616 10 13.1886 10.1857 13.665 10.5041L13.6627 4.49068L13.4725 4.4173L13.2108 4.32857L12.1225 3.96581C11.7732 3.84938 11.5844 3.47183 11.7009 3.12253C11.809 2.79819 12.1423 2.61225 12.469 2.68057Z"
    fill="#5FE9D0"/>
</svg>
