<svg width="16" height="16" viewBox="-4 -4 24 24" fill="none" xmlns="http://www.w3.org/2000/svg">
  <path
    d="M5.33331 1.99984C5.33331 1.26346 5.93027 0.666504 6.66665 0.666504H9.33331C10.0697 0.666504 10.6666 1.26346 10.6666 1.99984V4.6665C10.6666 5.40288 10.0697 5.99984 9.33331 5.99984H8.66872L8.66734 7.33317H14C14.3682 7.33317 14.6666 7.63165 14.6666 7.99984C14.6666 8.36803 14.3682 8.6665 14 8.6665H12.6687L12.6673 9.99984H13.3333C14.0697 9.99984 14.6666 10.5968 14.6666 11.3332V13.9998C14.6666 14.7362 14.0697 15.3332 13.3333 15.3332H10.6666C9.93027 15.3332 9.33331 14.7362 9.33331 13.9998V11.3332C9.33331 10.5968 9.93027 9.99984 10.6666 9.99984H11.334L11.3354 8.6665H8.06114C8.04077 8.66836 8.02014 8.66929 7.99929 8.66927C7.97891 8.66925 7.95875 8.66831 7.93884 8.6665H4.66872L4.66734 9.99984H5.33331C6.06969 9.99984 6.66665 10.5968 6.66665 11.3332V13.9998C6.66665 14.7362 6.06969 15.3332 5.33331 15.3332H2.66665C1.93027 15.3332 1.33331 14.7362 1.33331 13.9998V11.3332C1.33331 10.5968 1.93027 9.99984 2.66665 9.99984H3.33401L3.33539 8.6665H1.99998C1.63179 8.6665 1.33331 8.36803 1.33331 7.99984C1.33331 7.63165 1.63179 7.33317 1.99998 7.33317H7.33401L7.33539 5.99984H6.66665C5.93027 5.99984 5.33331 5.40288 5.33331 4.6665V1.99984Z"
    fill="#5FE9D0"
  />
</svg>
