<svg width="16" height="16" viewBox="-4 -4 24 24" fill="none" xmlns="http://www.w3.org/2000/svg">
  <path
    d="M9.09998 4.66659C8.84207 4.66659 8.66665 4.86467 8.66665 5.06809C8.66665 5.33867 8.84309 5.68636 9.20426 6.04055C9.46907 6.30024 9.76815 6.49845 9.99998 6.61311C10.2318 6.49845 10.5309 6.30024 10.7957 6.04055C11.1569 5.68636 11.3333 5.33867 11.3333 5.06809C11.3333 4.86467 11.1579 4.66659 10.9 4.66659C10.7456 4.66659 10.6158 4.74024 10.5397 4.84514C10.4143 5.01808 10.2136 5.12045 9.99998 5.12045C9.78636 5.12045 9.58567 5.01808 9.46027 4.84514C9.38421 4.74024 9.25434 4.66659 9.09998 4.66659Z"
    fill="#5FE9D0"/>
  <path
    fill-rule="evenodd"
    clip-rule="evenodd"
    d="M1.33331 2.99992C1.33331 2.07945 2.07951 1.33325 2.99998 1.33325H13C13.9205 1.33325 14.6666 2.07945 14.6666 2.99992V12.9999C14.6666 13.9204 13.9205 14.6666 13 14.6666H2.99998C2.07951 14.6666 1.33331 13.9204 1.33331 12.9999V2.99992ZM9.09998 3.33325C8.14289 3.33325 7.33331 4.09164 7.33331 5.06809C7.33331 5.8657 7.80687 6.53765 8.2707 6.99251C8.74308 7.45577 9.32969 7.81746 9.79523 7.9677C9.92835 8.01066 10.0716 8.01066 10.2047 7.9677C10.6703 7.81746 11.2569 7.45577 11.7293 6.99251C12.1931 6.53765 12.6666 5.8657 12.6666 5.06809C12.6666 4.09164 11.8571 3.33325 10.9 3.33325C10.5728 3.33325 10.2645 3.42101 9.99998 3.57502C9.73541 3.42101 9.42721 3.33325 9.09998 3.33325ZM9.09998 4.66659C8.84207 4.66659 8.66665 4.86467 8.66665 5.06809C8.66665 5.33867 8.84309 5.68636 9.20426 6.04055C9.46907 6.30024 9.76815 6.49845 9.99998 6.61311C10.2318 6.49845 10.5309 6.30024 10.7957 6.04055C11.1569 5.68636 11.3333 5.33867 11.3333 5.06809C11.3333 4.86467 11.1579 4.66659 10.9 4.66659C10.7456 4.66659 10.6158 4.74024 10.5397 4.84514C10.4143 5.01808 10.2136 5.12045 9.99998 5.12045C9.78636 5.12045 9.58567 5.01808 9.46027 4.84514C9.38421 4.74024 9.25434 4.66659 9.09998 4.66659Z"
    fill="#5FE9D0"/>
</svg>
