<svg width="24" height="24" viewBox="0 0 24 24" fill="none" xmlns="http://www.w3.org/2000/svg">
  <rect width="24" height="24" rx="6" fill="#EDFCF2"/>
  <path
    fill-rule="evenodd"
    clip-rule="evenodd"
    d="M12 5C8.13401 5 5 8.13401 5 12C5 15.866 8.13401 19 12 19C12.3682 19 12.6667 18.7015 12.6667 18.3333V12.6667H18.3333C18.7015 12.6667 19 12.3682 19 12C19 8.13401 15.866 5 12 5ZM6.33333 12C6.33333 8.87039 8.87039 6.33333 12 6.33333C14.9041 6.33333 17.2979 8.51789 17.6279 11.3333H12.6667C11.9303 11.3333 11.3333 11.9303 11.3333 12.6667V17.6279C8.51789 17.2979 6.33333 14.9041 6.33333 12Z"
    fill="#2ED3B7"
  />
  <path
    fill-rule="evenodd"
    clip-rule="evenodd"
    d="M14 13.3333C13.6318 13.3333 13.3333 13.6318 13.3333 14V18C13.3333 18.3682 13.6318 18.6667 14 18.6667H18C18.3682 18.6667 18.6667 18.3682 18.6667 18V14C18.6667 13.6318 18.3682 13.3333 18 13.3333H14ZM14.6667 17.3333V14.6667H17.3333V17.3333H14.6667Z"
    fill="#2ED3B7"
  />
  <path
    d="M12 6.3335C8.87037 6.3335 6.33331 8.87055 6.33331 12.0002C6.33331 14.9042 8.51787 17.2981 11.3333 17.628V12.6668C11.3333 11.9304 11.9303 11.3335 12.6666 11.3335H17.6278C17.2979 8.51805 14.904 6.3335 12 6.3335Z"
    fill="#CCFBEF"
  />
</svg>
