<svg width="16" height="16" viewBox="-4 -4 24 24" fill="none" xmlns="http://www.w3.org/2000/svg">
  <path
    fill-rule="evenodd"
    clip-rule="evenodd"
    d="M4.99998 1.33317C4.99998 0.964981 5.29846 0.666504 5.66665 0.666504H10.3333C10.7015 0.666504 11 0.964981 11 1.33317V3.99984C11 4.36803 10.7015 4.6665 10.3333 4.6665H8.66665V9.99984H12.6666C12.9192 9.99984 13.15 10.1425 13.2629 10.3684L14.5963 13.035C14.6996 13.2417 14.6886 13.4871 14.5671 13.6837C14.4456 13.8802 14.231 13.9998 14 13.9998H11.3333V14.6665C11.3333 15.0347 11.0348 15.3332 10.6666 15.3332C10.2985 15.3332 9.99998 15.0347 9.99998 14.6665V13.9998H5.99998V14.6665C5.99998 15.0347 5.7015 15.3332 5.33331 15.3332C4.96512 15.3332 4.66665 15.0347 4.66665 14.6665V13.9998H1.99998C1.76893 13.9998 1.55435 13.8802 1.43288 13.6837C1.31141 13.4871 1.30037 13.2417 1.4037 13.035L2.73703 10.3684C2.84996 10.1425 3.0808 9.99984 3.33331 9.99984H7.33331V4.6665H5.66665C5.29846 4.6665 4.99998 4.36803 4.99998 3.99984V1.33317Z"
    fill="#84ADFF"/>
</svg>
