<svg width="24" height="24" viewBox="0 0 24 24" fill="none" xmlns="http://www.w3.org/2000/svg">
  <rect width="24" height="24" rx="6" fill="#EFF4FF"/>
  <path
    fill-rule="evenodd"
    clip-rule="evenodd"
    d="M12.6667 16.6668H17.6667C18.5872 16.6668 19.3334 15.9206 19.3334 15.0002V7.00016C19.3334 6.07969 18.5872 5.3335 17.6667 5.3335H6.33335C5.41288 5.3335 4.66669 6.07969 4.66669 7.00016V15.0002C4.66669 15.9206 5.41288 16.6668 6.33335 16.6668H11.3334V17.6668H7.33335C6.96516 17.6668 6.66669 17.9653 6.66669 18.3335C6.66669 18.7017 6.96516 19.0002 7.33335 19.0002H16.6667C17.0349 19.0002 17.3334 18.7017 17.3334 18.3335C17.3334 17.9653 17.0349 17.6668 16.6667 17.6668H12.6667V16.6668ZM6.00002 7.00016C6.00002 6.81607 6.14926 6.66683 6.33335 6.66683H17.6667C17.8508 6.66683 18 6.81607 18 7.00016V15.0002C18 15.1843 17.8508 15.3335 17.6667 15.3335H6.33335C6.14926 15.3335 6.00002 15.1843 6.00002 15.0002V7.00016Z"
    fill="#528BFF"/>
  <path
    d="M8.66665 9.66667C8.66665 9.48257 8.81588 9.33333 8.99998 9.33333C9.18407 9.33333 9.33331 9.48257 9.33331 9.66667C9.33331 9.85076 9.18407 10 8.99998 10C8.81588 10 8.66665 9.85076 8.66665 9.66667Z"
    fill="#528BFF"/>
  <path
    d="M15 12C14.8159 12 14.6666 12.1492 14.6666 12.3333C14.6666 12.5174 14.8159 12.6667 15 12.6667C15.1841 12.6667 15.3333 12.5174 15.3333 12.3333C15.3333 12.1492 15.1841 12 15 12Z"
    fill="#528BFF"/>
  <path
    fill-rule="evenodd"
    clip-rule="evenodd"
    d="M8.99998 8C8.0795 8 7.33331 8.74619 7.33331 9.66667C7.33331 10.5871 8.0795 11.3333 8.99998 11.3333C9.92045 11.3333 10.6666 10.5871 10.6666 9.66667C10.6666 8.74619 9.92045 8 8.99998 8ZM8.99998 9.33333C8.81588 9.33333 8.66665 9.48257 8.66665 9.66667C8.66665 9.85076 8.81588 10 8.99998 10C9.18407 10 9.33331 9.85076 9.33331 9.66667C9.33331 9.48257 9.18407 9.33333 8.99998 9.33333Z"
    fill="#528BFF"/>
  <path
    d="M15.1056 9.16839C15.3827 8.92594 15.4108 8.50476 15.1684 8.22767C14.9259 7.95058 14.5047 7.9225 14.2276 8.16496L8.89431 12.8316C8.61722 13.0741 8.58914 13.4953 8.83159 13.7723C9.07405 14.0494 9.49522 14.0775 9.77232 13.8351L15.1056 9.16839Z"
    fill="#528BFF"/>
  <path
    fill-rule="evenodd"
    clip-rule="evenodd"
    d="M13.3333 12.3333C13.3333 11.4129 14.0795 10.6667 15 10.6667C15.9205 10.6667 16.6666 11.4129 16.6666 12.3333C16.6666 13.2538 15.9205 14 15 14C14.0795 14 13.3333 13.2538 13.3333 12.3333ZM14.6666 12.3333C14.6666 12.1492 14.8159 12 15 12C15.1841 12 15.3333 12.1492 15.3333 12.3333C15.3333 12.5174 15.1841 12.6667 15 12.6667C14.8159 12.6667 14.6666 12.5174 14.6666 12.3333Z"
    fill="#528BFF"/>
  <path
    fill-rule="evenodd"
    clip-rule="evenodd"
    d="M6.33333 6.6665C6.14924 6.6665 6 6.81574 6 6.99984V14.9998C6 15.1839 6.14924 15.3332 6.33333 15.3332H17.6667C17.8508 15.3332 18 15.1839 18 14.9998V6.99984C18 6.81574 17.8508 6.6665 17.6667 6.6665H6.33333ZM15.1684 8.22751C15.4108 8.5046 15.3828 8.92578 15.1057 9.16823L9.77234 13.8349C9.49524 14.0774 9.07407 14.0493 8.83161 13.7722C8.58916 13.4951 8.61724 13.0739 8.89433 12.8315L14.2277 8.1648C14.5048 7.92234 14.9259 7.95042 15.1684 8.22751ZM7.33333 9.6665C7.33333 8.74603 8.07953 7.99984 9 7.99984C9.92047 7.99984 10.6667 8.74603 10.6667 9.6665C10.6667 10.587 9.92047 11.3332 9 11.3332C8.07953 11.3332 7.33333 10.587 7.33333 9.6665ZM15 10.6665C14.0795 10.6665 13.3333 11.4127 13.3333 12.3332C13.3333 13.2536 14.0795 13.9998 15 13.9998C15.9205 13.9998 16.6667 13.2536 16.6667 12.3332C16.6667 11.4127 15.9205 10.6665 15 10.6665Z"
    fill="#D1E0FF"/>
  <path
    d="M8.66667 9.6665C8.66667 9.48241 8.81591 9.33317 9 9.33317C9.18409 9.33317 9.33333 9.48241 9.33333 9.6665C9.33333 9.8506 9.18409 9.99984 9 9.99984C8.81591 9.99984 8.66667 9.8506 8.66667 9.6665Z"
    fill="#D1E0FF"/>
  <path
    d="M15 11.9998C14.8159 11.9998 14.6667 12.1491 14.6667 12.3332C14.6667 12.5173 14.8159 12.6665 15 12.6665C15.1841 12.6665 15.3333 12.5173 15.3333 12.3332C15.3333 12.1491 15.1841 11.9998 15 11.9998Z"
    fill="#D1E0FF"/>
</svg>
