<svg width="16" height="16" viewBox="-4 -4 24 24" fill="none" xmlns="http://www.w3.org/2000/svg">
  <path
    d="M13 1.3335C13.8836 1.3335 14.6067 2.02118 14.6631 2.89058L14.6666 3.00016V13.0002C14.6666 13.8838 13.979 14.6069 13.1096 14.6633L13 14.6668H2.99998C2.11632 14.6668 1.39329 13.9791 1.33686 13.1097L1.33331 13.0002V3.00016C1.33331 2.11651 2.021 1.39347 2.8904 1.33704L2.99998 1.3335H13ZM13 2.66683H2.99998C2.83634 2.66683 2.70024 2.78475 2.67202 2.94025L2.66665 3.00016V13.0002C2.66665 13.1638 2.78456 13.2999 2.94006 13.3281L2.99998 13.3335H13C13.1636 13.3335 13.2997 13.2156 13.3279 13.0601L13.3333 13.0002V3.00016C13.3333 2.81606 13.1841 2.66683 13 2.66683ZM12.2626 4.05407C12.5039 4.15749 12.6597 4.39147 12.6664 4.64925L12.6639 4.72719L12.3306 8.39385C12.291 8.8292 11.8502 9.10929 11.4392 8.96018C9.21616 8.15349 6.7838 8.15349 4.56072 8.96018C4.17396 9.10052 3.76072 8.86067 3.68045 8.46901L3.66938 8.39385L3.33605 4.72719C3.3099 4.43957 3.47192 4.16783 3.73737 4.05407C6.2384 2.98219 9.76156 2.98219 12.2626 4.05407ZM7.5278 5.59281C7.32419 5.32831 6.95015 5.2526 6.65698 5.4285C6.34126 5.61793 6.23889 6.02744 6.42832 6.34316L6.86975 7.07796C7.37679 7.02747 7.88637 7.01104 8.39507 7.02867L7.57164 5.65717L7.5278 5.59281Z"
    fill="#84ADFF"/>
</svg>
