<svg width="24" height="24" viewBox="0 0 24 24" fill="none" xmlns="http://www.w3.org/2000/svg">
  <rect width="24" height="24" rx="6" fill="#F4F3FF"/>
  <path
    fill-rule="evenodd"
    clip-rule="evenodd"
    d="M4.66669 5.66667C4.66669 5.29848 4.96516 5 5.33335 5H18.6667C19.0349 5 19.3334 5.29848 19.3334 5.66667C19.3334 6.03486 19.0349 6.33333 18.6667 6.33333H5.33335C4.96516 6.33333 4.66669 6.03486 4.66669 5.66667ZM6.66669 7.33333C7.03488 7.33333 7.33335 7.63181 7.33335 8V8.33333C7.33335 8.70152 7.03488 9 6.66669 9C6.2985 9 6.00002 8.70152 6.00002 8.33333V8C6.00002 7.63181 6.2985 7.33333 6.66669 7.33333ZM11.6667 7.33333C12.0349 7.33333 12.3334 7.63181 12.3334 8V8.33333C12.3334 8.70152 12.0349 9 11.6667 9C11.2985 9 11 8.70152 11 8.33333V8C11 7.63181 11.2985 7.33333 11.6667 7.33333ZM15.3334 8C15.3334 7.63181 15.6318 7.33333 16 7.33333H18.6667C19.0349 7.33333 19.3334 7.63181 19.3334 8V10.6667C19.3334 11.0349 19.0349 11.3333 18.6667 11.3333H18V17.6667H18.6667C19.0349 17.6667 19.3334 17.9651 19.3334 18.3333C19.3334 18.7015 19.0349 19 18.6667 19H5.33335C4.96516 19 4.66669 18.7015 4.66669 18.3333C4.66669 17.9651 4.96516 17.6667 5.33335 17.6667H6.00002V16.6667H5.33335C4.96516 16.6667 4.66669 16.3682 4.66669 16V13.3333C4.66669 12.9651 4.96516 12.6667 5.33335 12.6667H8.00002C8.36821 12.6667 8.66669 12.9651 8.66669 13.3333V16C8.66669 16.3682 8.36821 16.6667 8.00002 16.6667H7.33335V17.6667H11.3334V14H10.6667C10.2985 14 10 13.7015 10 13.3333V10.6667C10 10.2985 10.2985 10 10.6667 10H13.3334C13.7015 10 14 10.2985 14 10.6667V13.3333C14 13.7015 13.7015 14 13.3334 14H12.6667V17.6667H16.6667V11.3333H16C15.6318 11.3333 15.3334 11.0349 15.3334 10.6667V8ZM18 10H16.6667V8.66667H18V10ZM12.6667 12.6667V11.3333H11.3334V12.6667H12.6667ZM7.33335 15.3333V14H6.00002V15.3333H7.33335ZM6.66669 10C7.03488 10 7.33335 10.2985 7.33335 10.6667V11C7.33335 11.3682 7.03488 11.6667 6.66669 11.6667C6.2985 11.6667 6.00002 11.3682 6.00002 11V10.6667C6.00002 10.2985 6.2985 10 6.66669 10Z"
    fill="#9B8AFB"/>
  <path d="M7.33333 14.0001V15.3334H6V14.0001H7.33333Z" fill="#EBE9FE"/>
  <path d="M12.6667 11.3334V12.6667H11.3333V11.3334H12.6667Z" fill="#EBE9FE"/>
  <path d="M16.6667 10.0001V8.66675H18V10.0001H16.6667Z" fill="#EBE9FE"/>
</svg>
