<svg width="16" height="16" viewBox="-4 -4 24 24" fill="none" xmlns="http://www.w3.org/2000/svg">
  <path
    fill-rule="evenodd" clip-rule="evenodd"
    d="M11.3333 1.33325C9.49236 1.33325 7.99998 2.82564 7.99998 4.66659C7.99998 6.50753 9.49236 7.99992 11.3333 7.99992C13.1743 7.99992 14.6666 6.50753 14.6666 4.66659C14.6666 2.82564 13.1743 1.33325 11.3333 1.33325ZM11.3333 5.66659C11.8856 5.66659 12.3333 5.21887 12.3333 4.66659C12.3333 4.1143 11.8856 3.66659 11.3333 3.66659C10.781 3.66659 10.3333 4.1143 10.3333 4.66659C10.3333 5.21887 10.781 5.66659 11.3333 5.66659Z"
    fill="#BDB4FE"/>
  <path
    d="M1.33331 3.66659C1.33331 2.56202 2.22874 1.66659 3.33331 1.66659H6.66665C7.03484 1.66659 7.33331 1.96506 7.33331 2.33325C7.33331 2.70144 7.03484 2.99992 6.66665 2.99992H3.33331C2.96512 2.99992 2.66665 3.2984 2.66665 3.66659V5.66659C2.66665 6.03477 2.96513 6.33325 3.33331 6.33325H6.66665C7.03484 6.33325 7.33331 6.63173 7.33331 6.99992C7.33331 7.36811 7.03484 7.66659 6.66665 7.66659H3.33331C2.22874 7.66659 1.33331 6.77114 1.33331 5.66659V3.66659Z"
    fill="#BDB4FE"/>
  <path
    fill-rule="evenodd" clip-rule="evenodd"
    d="M1.33331 10.6666C1.33331 9.56202 2.22874 8.66659 3.33331 8.66659H12.6666C13.7712 8.66659 14.6666 9.56202 14.6666 10.6666V12.6666C14.6666 13.7712 13.7712 14.6666 12.6666 14.6666H3.33331C2.22874 14.6666 1.33331 13.7712 1.33331 12.6666V10.6666ZM3.33331 9.99992C2.96512 9.99992 2.66665 10.2984 2.66665 10.6666V12.6666C2.66665 13.0348 2.96512 13.3333 3.33331 13.3333H12.6666C13.0348 13.3333 13.3333 13.0348 13.3333 12.6666V10.6666C13.3333 10.2984 13.0348 9.99992 12.6666 9.99992H3.33331Z"
    fill="#BDB4FE"/>
</svg>
