<svg width="16" height="16" viewBox="-4 -4 24 24" fill="none" xmlns="http://www.w3.org/2000/svg">
  <path
    d="M2.66665 1.33325C1.93027 1.33325 1.33331 1.93021 1.33331 2.66659V5.99992C1.33331 6.7363 1.93027 7.33325 2.66665 7.33325H5.99998C6.73636 7.33325 7.33331 6.7363 7.33331 5.99992V2.66659C7.33331 1.93021 6.73636 1.33325 5.99998 1.33325H2.66665Z"
    fill="#BDB4FE"/>
  <path
    d="M2.66665 8.66659C1.93027 8.66659 1.33331 9.26354 1.33331 9.99992V13.3333C1.33331 14.0696 1.93027 14.6666 2.66665 14.6666H5.99998C6.73636 14.6666 7.33331 14.0696 7.33331 13.3333V9.99992C7.33331 9.26354 6.73636 8.66659 5.99998 8.66659H2.66665Z"
    fill="#BDB4FE"/>
  <path
    d="M9.99998 1.33325C9.2636 1.33325 8.66665 1.93021 8.66665 2.66659V5.99992C8.66665 6.7363 9.2636 7.33325 9.99998 7.33325H13.3333C14.0697 7.33325 14.6666 6.7363 14.6666 5.99992V2.66659C14.6666 1.93021 14.0697 1.33325 13.3333 1.33325H9.99998Z"
    fill="#BDB4FE"/>
  <path
    d="M9.99998 8.66659C9.2636 8.66659 8.66665 9.26354 8.66665 9.99992V13.3333C8.66665 14.0696 9.2636 14.6666 9.99998 14.6666H13.3333C14.0697 14.6666 14.6666 14.0696 14.6666 13.3333V9.99992C14.6666 9.26354 14.0697 8.66659 13.3333 8.66659H9.99998Z"
    fill="#BDB4FE"/>
</svg>
