<svg width="16" height="16" viewBox="-4 -4 24 24" fill="none" xmlns="http://www.w3.org/2000/svg">
  <path
    fill-rule="evenodd"
    clip-rule="evenodd"
    d="M3 1.33325C1.89543 1.33325 1 2.22868 1 3.33325C1 4.43785 1.89544 5.33325 3 5.33325C4.10455 5.33325 5 4.43785 5 3.33325C5 2.22868 4.10455 1.33325 3 1.33325Z"
    fill="#EEAAFD"/>
  <path
    fill-rule="evenodd"
    clip-rule="evenodd"
    d="M3 10.6666C1.89543 10.6666 1 11.562 1 12.6666C1 13.7711 1.89543 14.6666 3 14.6666C4.10456 14.6666 5 13.7711 5 12.6666C5 11.562 4.10456 10.6666 3 10.6666Z"
    fill="#EEAAFD"/>
  <path
    fill-rule="evenodd"
    clip-rule="evenodd"
    d="M1 7.99992C1 6.89532 1.89544 5.99992 3 5.99992C4.10455 5.99992 5 6.89532 5 7.99992C5 9.10452 4.10455 9.99992 3 9.99992C1.89544 9.99992 1 9.10452 1 7.99992Z"
    fill="#EEAAFD"/>
  <path
    d="M7 7.33325C6.63181 7.33325 6.33333 7.63173 6.33333 7.99992C6.33333 8.36811 6.63181 8.66659 7 8.66659H14.3333C14.7015 8.66659 15 8.36811 15 7.99992C15 7.63173 14.7015 7.33325 14.3333 7.33325H7Z"
    fill="#EEAAFD"/>
  <path
    d="M6.33333 12.6666C6.33333 12.2984 6.63181 11.9999 7 11.9999H14.3333C14.7015 11.9999 15 12.2984 15 12.6666C15 13.0348 14.7015 13.3333 14.3333 13.3333H7C6.63181 13.3333 6.33333 13.0348 6.33333 12.6666Z"
    fill="#EEAAFD"/>
  <path
    d="M7 2.66659C6.63181 2.66659 6.33333 2.96506 6.33333 3.33325C6.33333 3.70144 6.63181 3.99992 7 3.99992H14.3333C14.7015 3.99992 15 3.70144 15 3.33325C15 2.96506 14.7015 2.66659 14.3333 2.66659H7Z"
    fill="#EEAAFD"/>
</svg>
