<svg width="24" height="24" viewBox="0 0 24 24" fill="none" xmlns="http://www.w3.org/2000/svg">
  <rect width="24" height="24" rx="6" fill="#F4F3FF"/>
  <path
    fill-rule="evenodd"
    clip-rule="evenodd"
    d="M10.8 4.66675C9.4377 4.66675 8.33333 5.77111 8.33333 7.13341C8.33333 8.03352 8.81545 8.82103 9.53554 9.25178L8.19685 13.0001H6.33333C5.59696 13.0001 5 13.597 5 14.3334V18.0001C5 18.7365 5.59696 19.3334 6.33333 19.3334H17.6667C18.4031 19.3334 19 18.7365 19 18.0001V14.3334C19 13.597 18.4031 13.0001 17.6667 13.0001H15.8031L14.4645 9.25178C15.1845 8.82103 15.6667 8.03352 15.6667 7.13341C15.6667 5.77111 14.5623 4.66675 13.2 4.66675H10.8ZM9.66667 7.13341C9.66667 6.50749 10.1741 6.00008 10.8 6.00008H13.2C13.8259 6.00008 14.3333 6.50749 14.3333 7.13341C14.3333 7.75934 13.8259 8.26675 13.2 8.26675H10.8C10.1741 8.26675 9.66667 7.75934 9.66667 7.13341ZM10.8032 9.66675L9.61267 13.0001H14.3873L13.1968 9.66675H10.8032ZM6.33333 14.3334H17.6667V15.0001H6.33333V14.3334ZM6.33333 16.3334V18.0001H17.6667V16.3334H6.33333Z"
    fill="#9B8AFB"/>
  <path
    d="M10.8 6C10.1741 6 9.66668 6.50741 9.66668 7.13333C9.66668 7.75926 10.1741 8.26667 10.8 8.26667H13.2C13.8259 8.26667 14.3333 7.75926 14.3333 7.13333C14.3333 6.50741 13.8259 6 13.2 6H10.8Z"
    fill="#EBE9FE"/>
  <path d="M6.33334 18V16.3333H17.6667V18H6.33334Z" fill="#EBE9FE"/>
</svg>
