<svg width="16" height="16" viewBox="-4 -4 24 24" fill="none" xmlns="http://www.w3.org/2000/svg">
  <path
    fill-rule="evenodd"
    clip-rule="evenodd"
    d="M6.8 0.666748C5.4377 0.666748 4.33333 1.77111 4.33333 3.13341C4.33333 4.03352 4.81545 4.82103 5.53554 5.25178L4.19685 9.00008H2.33333C1.59696 9.00008 1 9.59702 1 10.3334V14.0001C1 14.7365 1.59696 15.3334 2.33333 15.3334H13.6667C14.4031 15.3334 15 14.7365 15 14.0001V10.3334C15 9.59702 14.4031 9.00008 13.6667 9.00008H11.8031L10.4645 5.25178C11.1845 4.82103 11.6667 4.03352 11.6667 3.13341C11.6667 1.77111 10.5623 0.666748 9.2 0.666748H6.8ZM6.80316 5.66675L5.61267 9.00008H10.3873L9.19684 5.66675H6.80316ZM2.33333 10.3334H13.6667V11.0001H2.33333V10.3334Z"
    fill="#BDB4FE"/>
</svg>
