<svg width="16" height="16" viewBox="-4 -4 24 24" fill="none" xmlns="http://www.w3.org/2000/svg">
  <path d="M6.33334 4.66675V6.66675H9.66668V4.66675H6.33334Z" fill="#EEAAFD"/>
  <path
    fill-rule="evenodd"
    clip-rule="evenodd"
    d="M2.33334 2.00008C2.33334 1.2637 2.9303 0.666748 3.66668 0.666748H13C13.7364 0.666748 14.3333 1.26371 14.3333 2.00008V14.0001C14.3333 14.7365 13.7364 15.3334 13 15.3334H3.66668C2.9303 15.3334 2.33334 14.7365 2.33334 14.0001V2.00008ZM5.00001 4.00008C5.00001 3.63189 5.29849 3.33341 5.66668 3.33341H10.3333C10.7015 3.33341 11 3.63189 11 4.00008V7.33341C11 7.7016 10.7015 8.00008 10.3333 8.00008H5.66668C5.29849 8.00008 5.00001 7.7016 5.00001 7.33341V4.00008ZM5.66668 9.33341C5.29849 9.33341 5.00001 9.63189 5.00001 10.0001C5.00001 10.3683 5.29849 10.6667 5.66668 10.6667H10.3333C10.7015 10.6667 11 10.3683 11 10.0001C11 9.63189 10.7015 9.33341 10.3333 9.33341H5.66668ZM5.66668 11.3334C5.29849 11.3334 5.00001 11.6319 5.00001 12.0001C5.00001 12.3683 5.29849 12.6667 5.66668 12.6667H8.00001C8.3682 12.6667 8.66668 12.3683 8.66668 12.0001C8.66668 11.6319 8.3682 11.3334 8.00001 11.3334H5.66668Z"
    fill="#EEAAFD"/>
</svg>
