<svg width="24" height="24" viewBox="0 0 24 24" fill="none" xmlns="http://www.w3.org/2000/svg">
  <rect width="24" height="24" rx="6" fill="#FDF4FF"/>
  <path
    fill-rule="evenodd"
    clip-rule="evenodd"
    d="M6 6.00008C6 5.2637 6.59695 4.66675 7.33333 4.66675H14.3333C14.5223 4.66675 14.7024 4.74696 14.8289 4.88744L17.8271 8.21886C17.9346 8.33721 18 8.49434 18 8.66675V11.6667C18 12.0349 17.7015 12.3334 17.3333 12.3334C16.9651 12.3334 16.6667 12.0349 16.6667 11.6667V9.33341H14C13.6318 9.33341 13.3333 9.03494 13.3333 8.66675V6.00008H7.33333V18.0001H11.3333C11.7015 18.0001 12 18.2986 12 18.6667C12 19.0349 11.7015 19.3334 11.3333 19.3334H7.33333C6.59696 19.3334 6 18.7365 6 18.0001V6.00008ZM14.6667 6.70035V8.00008H15.8364L14.6667 6.70035Z"
    fill="#E478FA"/>
  <path
    fill-rule="evenodd"
    clip-rule="evenodd"
    d="M17.1381 13.5287L18.4714 14.862C18.7318 15.1224 18.7318 15.5445 18.4714 15.8048L15.1381 19.1382C15.013 19.2632 14.8435 19.3334 14.6667 19.3334H13.3333C12.9651 19.3334 12.6667 19.0349 12.6667 18.6667V17.3334C12.6667 17.1566 12.7369 16.987 12.8619 16.862L16.1953 13.5287C16.4556 13.2683 16.8777 13.2683 17.1381 13.5287ZM14 17.6096V18.0001H14.3905L17.0572 15.3334L16.6667 14.9429L14 17.6096Z"
    fill="#E478FA"/>
  <path d="M14 18.0001V17.6095L16.6667 14.9429L17.0572 15.3334L14.3905 18.0001H14Z" fill="#FBE8FF"/>
</svg>
