<svg width="16" height="16" viewBox="-4 -4 24 24" fill="none" xmlns="http://www.w3.org/2000/svg">
  <path
    d="M1.33335 0.666504C1.67524 0.666504 1.95703 0.923864 1.99554 1.25542L2.00002 1.33317V13.9998H14.6667C15.0086 13.9998 15.2904 14.2572 15.3289 14.5888L15.3334 14.6665C15.3334 15.0084 15.076 15.2902 14.7444 15.3287L14.6667 15.3332H1.33335C0.991463 15.3332 0.709682 15.0758 0.671172 14.7443L0.666687 14.6665V1.33317C0.666687 0.964981 0.965164 0.666504 1.33335 0.666504ZM9.00002 0.666504C10.9432 0.666504 12.4073 2.59962 13.6014 5.85092L13.7662 6.31309C13.8206 6.46995 13.8744 6.62961 13.9277 6.79199L14.0994 7.33317H14.6667C15.0086 7.33317 15.2904 7.59053 15.3289 7.92209L15.3334 7.99984C15.3334 8.36803 15.0349 8.6665 14.6667 8.6665L14.4818 8.66634C14.6652 9.35516 14.8315 10.0559 14.9811 10.7564L15.0949 11.306L15.1945 11.8192L15.239 12.0609L15.3254 12.5636C15.3822 12.9274 15.1334 13.2683 14.7696 13.3252C14.4058 13.382 14.0649 13.1332 14.008 12.7694L13.927 12.2981L13.8374 11.8208L13.7341 11.3055C13.7157 11.2167 13.6967 11.1264 13.6772 11.0349C13.3981 9.72829 13.0594 8.42231 12.6609 7.20768L12.5061 6.75001C12.402 6.45101 12.2958 6.1643 12.1879 5.89042L12.0247 5.48929C11.9699 5.35883 11.9147 5.23165 11.859 5.10781L11.691 4.74636C10.8453 2.98989 9.91785 1.99984 9.00002 1.99984C8.08219 1.99984 7.15476 2.98989 6.30902 4.74636L6.14099 5.10781C6.08536 5.23165 6.03012 5.35883 5.9753 5.48929L5.81211 5.89042C5.70419 6.1643 5.59804 6.45101 5.49389 6.75001L5.33919 7.20768C4.94064 8.42231 4.6019 9.72829 4.32289 11.0349L4.26598 11.3055L4.1626 11.8208L4.05373 12.4061L3.99203 12.7694C3.93519 13.1332 3.59421 13.382 3.23044 13.3252C2.86666 13.2683 2.61784 12.9274 2.67468 12.5636L2.76102 12.0609L2.85356 11.5674C2.87017 11.4819 2.88736 11.3947 2.90514 11.306L3.01895 10.7564C3.16855 10.0559 3.33486 9.35516 3.51825 8.66634L3.33335 8.6665C2.96516 8.6665 2.66669 8.36803 2.66669 7.99984C2.66669 7.63165 2.96516 7.33317 3.33335 7.33317L3.9001 7.33355C3.95621 7.15148 4.01361 6.97088 4.07231 6.79199C4.12559 6.62961 4.17942 6.46995 4.2338 6.31309L4.39868 5.85092C5.5927 2.59962 7.05688 0.666504 9.00002 0.666504ZM6.66669 7.33317C7.03488 7.33317 7.33335 7.63165 7.33335 7.99984C7.33335 8.36803 7.03488 8.6665 6.66669 8.6665H6.00002C5.63183 8.6665 5.33335 8.36803 5.33335 7.99984C5.33335 7.63165 5.63183 7.33317 6.00002 7.33317H6.66669ZM9.33335 7.33317C9.70154 7.33317 10 7.63165 10 7.99984C10 8.36803 9.70154 8.6665 9.33335 8.6665H8.66669C8.2985 8.6665 8.00002 8.36803 8.00002 7.99984C8.00002 7.63165 8.2985 7.33317 8.66669 7.33317H9.33335ZM12 7.33317C12.3682 7.33317 12.6667 7.63165 12.6667 7.99984C12.6667 8.36803 12.3682 8.6665 12 8.6665H11.3334C10.9652 8.6665 10.6667 8.36803 10.6667 7.99984C10.6667 7.63165 10.9652 7.33317 11.3334 7.33317H12Z"
    fill="#84ADFF"/>
</svg>
