<svg width="16" height="16" viewBox="-4 -4 24 24" fill="none" xmlns="http://www.w3.org/2000/svg">
  <path
    fill-rule="evenodd"
    clip-rule="evenodd"
    d="M14.8982 6.04134L5.90723 2.71135C5.83032 2.68168 5.74859 2.66654 5.66648 2.6665C5.53853 2.66645 5.40966 2.70307 5.29671 2.77857L5.28581 2.786C5.27549 2.79318 5.26541 2.80063 5.25557 2.80834L0.926849 6.13812C0.762793 6.26432 0.666656 6.45956 0.666656 6.66654V13.3332C0.666656 13.7014 0.965133 13.9999 1.33332 13.9999H5.66666L5.67297 13.9998L8.66666 13.9998H11.6667L14.6667 13.9998C15.0348 13.9998 15.3333 13.7014 15.3333 13.3332V6.66651C15.3333 6.38762 15.1597 6.1382 14.8982 6.04134ZM11.6667 13.9998L11.6693 13.9998H11.664L11.6667 13.9998ZM8.66666 13.9998L8.66929 13.9998H8.66402L8.66666 13.9998ZM4.99999 4.68711V12.6665H1.99999V6.9948L4.99999 4.68711ZM8.27685 7.79235C8.45069 7.66705 8.67418 7.63295 8.87747 7.70072L11.8775 8.70072C12.1497 8.79146 12.3333 9.04622 12.3333 9.33318V12.6665H11V9.81368L9.33332 9.25813V12.6665H7.99999V8.33318C7.99999 8.11888 8.103 7.91765 8.27685 7.79235Z"
    fill="#EEAAFD"/>
</svg>
