<svg width="16" height="16" viewBox="-4 -4 24 24" fill="none" xmlns="http://www.w3.org/2000/svg">
  <path
    fill-rule="evenodd"
    clip-rule="evenodd"
    d="M4.66669 2.00008C4.66669 1.2637 5.26364 0.666748 6.00002 0.666748H12.6667C13.4031 0.666748 14 1.2637 14 2.00008V13.3334H14.6667C15.0349 13.3334 15.3334 13.6319 15.3334 14.0001C15.3334 14.3683 15.0349 14.6667 14.6667 14.6667H1.33335C0.965164 14.6667 0.666687 14.3683 0.666687 14.0001C0.666687 13.6319 0.965164 13.3334 1.33335 13.3334H2.00002V9.33342C2.00002 8.59704 2.59697 8.00008 3.33335 8.00008H4.66669V2.00008ZM7.33335 3.33341H8.66669V4.66675H7.33335V3.33341ZM4.00002 10.6667C3.63183 10.6667 3.33335 10.9652 3.33335 11.3334C3.33335 11.7016 3.63183 12.0001 4.00002 12.0001H4.33335C4.70154 12.0001 5.00002 11.7016 5.00002 11.3334C5.00002 10.9652 4.70154 10.6667 4.33335 10.6667H4.00002ZM11.3334 3.33341H10V4.66675H11.3334V3.33341ZM7.33335 5.66675H8.66669V7.00008H7.33335V5.66675ZM11.3334 5.66675H10V7.00008H11.3334V5.66675ZM10 8.00008H11.3334V9.33342H10V8.00008ZM11.3334 10.3334H10V11.6667H11.3334V10.3334Z"
    fill="#EEAAFD"/>
</svg>
