<svg width="16" height="16" viewBox="-4 -4 24 24" fill="none" xmlns="http://www.w3.org/2000/svg">
  <path
    fill-rule="evenodd"
    clip-rule="evenodd"
    d="M2.36039 1.52946C2.42518 1.22078 2.69743 0.999756 3.01283 0.999756H13.0069C13.3229 0.999756 13.5954 1.22159 13.6596 1.53099L15.317 9.51936C15.3277 9.56678 15.3334 9.6161 15.3334 9.66675V14.0001C15.3334 14.3683 15.0349 14.6667 14.6667 14.6667H1.33335C0.965164 14.6667 0.666687 14.3683 0.666687 14.0001V9.66675C0.666687 9.6148 0.672628 9.56425 0.683868 9.51572L2.36039 1.52946ZM12.4643 2.33309L13.8475 9.00008H2.15451L3.55408 2.33309H12.4643ZM12.6667 11.8334C12.6667 12.2936 12.2936 12.6667 11.8334 12.6667C11.3731 12.6667 11 12.2936 11 11.8334C11 11.3732 11.3731 11.0001 11.8334 11.0001C12.2936 11.0001 12.6667 11.3732 12.6667 11.8334Z"
    fill="#EEAAFD"/>
</svg>
