<svg width="16" height="16" viewBox="-4 -4 24 24" fill="none" xmlns="http://www.w3.org/2000/svg">
  <path
    fill-rule="evenodd"
    clip-rule="evenodd"
    d="M8.00002 0.666504C6.71136 0.666504 5.66669 1.71117 5.66669 2.99984C5.66669 3.54498 5.85363 4.04646 6.16692 4.44366C5.04422 5.02356 4.23136 6.11949 4.04207 7.41771C3.0567 7.69081 2.33335 8.59418 2.33335 9.6665C2.33335 10.2116 2.5203 10.7131 2.83358 11.1103C1.54654 11.7751 0.666687 13.1181 0.666687 14.6665C0.666687 15.0347 0.965164 15.3332 1.33335 15.3332C1.70154 15.3332 2.00002 15.0347 2.00002 14.6665C2.00002 13.1938 3.19393 11.9998 4.66669 11.9998C6.13943 11.9998 7.33335 13.1938 7.33335 14.6665C7.33335 15.0347 7.63183 15.3332 8.00002 15.3332C8.36821 15.3332 8.66669 15.0347 8.66669 14.6665C8.66669 13.1938 9.86061 11.9998 11.3334 11.9998C12.8061 11.9998 14 13.1938 14 14.6665C14 15.0347 14.2985 15.3332 14.6667 15.3332C15.0349 15.3332 15.3334 15.0347 15.3334 14.6665C15.3334 13.1181 14.4535 11.7751 13.1665 11.1103C13.4797 10.7131 13.6667 10.2116 13.6667 9.6665C13.6667 8.59418 12.9433 7.69081 11.958 7.41771C11.7687 6.11949 10.9558 5.02356 9.83312 4.44366C10.1464 4.04646 10.3334 3.54498 10.3334 2.99984C10.3334 1.71117 9.28868 0.666504 8.00002 0.666504ZM10.6094 7.44764C10.3551 6.23987 9.28344 5.33317 8.00002 5.33317C6.7166 5.33317 5.64492 6.23987 5.3906 7.44764C6.32489 7.75226 7.00002 8.63054 7.00002 9.6665C7.00002 10.2116 6.81307 10.7131 6.49979 11.1103C7.10707 11.424 7.6237 11.8887 8.00002 12.4547C8.37634 11.8887 8.89297 11.424 9.50025 11.1103C9.18697 10.7131 9.00002 10.2116 9.00002 9.6665C9.00002 8.63054 9.67515 7.75226 10.6094 7.44764Z"
    fill="#5FE9D0"
  />
</svg>
