<svg width="24" height="24" viewBox="0 0 24 24" fill="none" xmlns="http://www.w3.org/2000/svg">
  <rect width="24" height="24" rx="6" fill="#FEF6EE"/>
  <path
    d="M10.3706 8C10.0024 8 9.70395 8.29848 9.70395 8.66667C9.70395 9.03486 10.0024 9.33333 10.3706 9.33333H16.3706C16.7388 9.33333 17.0373 9.03486 17.0373 8.66667C17.0373 8.29848 16.7388 8 16.3706 8H10.3706Z"
    fill="#F38744"/>
  <path
    d="M7.03695 8.66667C7.03695 8.29848 7.33543 8 7.70362 8H8.37028C8.73847 8 9.03695 8.29848 9.03695 8.66667C9.03695 9.03486 8.73847 9.33333 8.37028 9.33333H7.70362C7.33543 9.33333 7.03695 9.03486 7.03695 8.66667Z"
    fill="#F38744"/>
  <path
    fill-rule="evenodd"
    clip-rule="evenodd"
    d="M6.33335 6C5.41288 6 4.66669 6.74619 4.66669 7.66667V13C4.66669 13.3682 4.96516 13.6667 5.33335 13.6667C5.70154 13.6667 6.00002 13.3682 6.00002 13V11.3333H18V16.3333C18 16.5174 17.8508 16.6667 17.6667 16.6667H8.00002C7.63183 16.6667 7.33335 16.9651 7.33335 17.3333C7.33335 17.7015 7.63183 18 8.00002 18H17.6667C18.5872 18 19.3334 17.2538 19.3334 16.3333V7.66667C19.3334 6.7462 18.5872 6 17.6667 6H6.33335ZM6.00002 10H18V7.66667C18 7.48257 17.8508 7.33333 17.6667 7.33333H6.33335C6.14926 7.33333 6.00002 7.48257 6.00002 7.66667V10Z"
    fill="#F38744"/>
  <path
    d="M14.7689 12.1893C14.52 11.9467 14.1265 11.936 13.8648 12.1647L11.643 14.1066L9.89043 12.4283C9.62761 12.1766 9.21151 12.1822 8.95551 12.4408L4.89698 16.541C4.63796 16.8027 4.64012 17.2248 4.9018 17.4838C5.16348 17.7429 5.58558 17.7407 5.8446 17.479L9.44182 13.8448L11.1613 15.4915C11.4107 15.7303 11.8012 15.7392 12.0611 15.512L14.2788 13.5737L15.3316 14.6C15.5953 14.857 16.0174 14.8517 16.2744 14.588C16.5314 14.3244 16.526 13.9023 16.2624 13.6453L14.7689 12.1893Z"
    fill="#F38744"/>
  <path
    fill-rule="evenodd"
    clip-rule="evenodd"
    d="M6 10.0002H18V7.66683C18 7.48273 17.8508 7.3335 17.6667 7.3335H6.33333C6.14924 7.3335 6 7.48274 6 7.66683V10.0002ZM10.3706 8.00016C10.0024 8.00016 9.70393 8.29864 9.70393 8.66683C9.70393 9.03502 10.0024 9.3335 10.3706 9.3335H16.3706C16.7388 9.3335 17.0373 9.03502 17.0373 8.66683C17.0373 8.29864 16.7388 8.00016 16.3706 8.00016H10.3706ZM7.03693 8.66683C7.03693 8.29864 7.33541 8.00016 7.7036 8.00016H8.37026C8.73845 8.00016 9.03693 8.29864 9.03693 8.66683C9.03693 9.03502 8.73845 9.3335 8.37026 9.3335H7.7036C7.33541 9.3335 7.03693 9.03502 7.03693 8.66683Z"
    fill="#FDEAD7"/>
</svg>
