<svg width="24" height="24" viewBox="0 0 24 24" fill="none" xmlns="http://www.w3.org/2000/svg">
  <rect width="24" height="24" rx="6" fill="#EFF4FF"/>
  <path
    fill-rule="evenodd"
    clip-rule="evenodd"
    d="M19.3333 18.0002C19.3333 18.3684 19.0349 18.6668 18.6667 18.6668H5.33332C4.96513 18.6668 4.66666 18.3684 4.66666 18.0002V13.8335V9.66685C4.66666 9.40649 4.81822 9.16995 5.05475 9.06119C5.29129 8.95239 5.56951 8.99125 5.76718 9.16069L7.53743 10.678L8.95062 8.62249C9.13906 8.34842 9.50066 8.25515 9.79812 8.40389L11.3553 9.18246L13.8487 6.54243C14.0888 6.28812 14.4848 6.2627 14.7555 6.48421L16.1219 7.60217L18.1953 5.52878C18.3859 5.33811 18.6727 5.28108 18.9218 5.38426C19.1709 5.48745 19.3333 5.73054 19.3333 6.00018V18.0002ZM10.2108 11.3677C9.92559 11.2726 9.61206 11.3802 9.44529 11.6304L7.78814 14.1161L5.99999 13.1102V11.1163L7.2328 12.173C7.37639 12.2961 7.56552 12.3524 7.75306 12.3279C7.94059 12.3034 8.10886 12.2004 8.21602 12.0445L9.72071 9.85588L11.2019 10.5965C11.4648 10.728 11.7828 10.6717 11.9847 10.4579L14.3917 7.90931L15.7445 9.01615C16.0096 9.23305 16.3959 9.21379 16.6381 8.97159L18 7.60965V8.74965L16.2601 10.738L14.7601 9.48802C14.4821 9.25629 14.07 9.28875 13.8316 9.56115L11.7902 11.8941L10.2108 11.3677ZM8.55469 15.37C8.36129 15.6601 7.97702 15.7521 7.67316 15.5812L5.99999 14.6401V17.3335H18.0017V10.7725L16.8351 12.1058C16.5967 12.3782 16.1846 12.4107 15.9065 12.179L14.4065 10.9289L12.5017 13.1058C12.3249 13.308 12.044 13.3842 11.7892 13.2993L10.2722 12.7936L8.55469 15.37Z"
    fill="#528BFF"/>
  <path
    d="M7.67317 15.5812C7.97703 15.7521 8.3613 15.66 8.5547 15.3699L10.2722 12.7936L11.7892 13.2993C12.044 13.3842 12.3249 13.3079 12.5017 13.1058L14.4065 10.9289L15.9065 12.1789C16.1846 12.4107 16.5967 12.3782 16.8351 12.1058L18.0017 10.7725V17.3335H6V14.64L7.67317 15.5812Z"
    fill="#D1E0FF"/>
</svg>
