<svg width="24" height="24" viewBox="0 0 24 24" fill="none" xmlns="http://www.w3.org/2000/svg">
  <rect width="24" height="24" rx="6" fill="#FDF4FF"/>
  <path
    d="M16.3334 5.33325C17.0363 5.33325 17.6121 5.87717 17.663 6.56708L17.6667 6.66659V10.4999C17.6667 10.8681 17.3682 11.1666 17 11.1666C16.6581 11.1666 16.3763 10.9092 16.3378 10.5777L16.3334 10.4999V6.66659H7.00002V17.3333H11.6667C12.0349 17.3333 12.3334 17.6317 12.3334 17.9999C12.3334 18.3418 12.076 18.6236 11.7444 18.6621L11.6667 18.6666H7.00002C6.29711 18.6666 5.72124 18.1227 5.67034 17.4328L5.66669 17.3333V6.66659C5.66669 5.96368 6.21061 5.38781 6.90051 5.33691L7.00002 5.33325H16.3334ZM16.2122 12.3333C17.3781 12.3333 18.3334 13.2527 18.3334 14.3999C18.3334 15.1886 17.9501 15.8855 17.295 16.5963C17.189 16.7114 17.0791 16.8232 16.9537 16.9456L16.5166 17.3604C16.1908 17.6533 15.8053 17.942 15.3601 18.2277C15.1407 18.3684 14.8594 18.3684 14.64 18.2277C14.1205 17.8943 13.6824 17.557 13.3256 17.2136L12.9257 16.8262C12.8481 16.7483 12.7757 16.673 12.705 16.5963C12.05 15.8855 11.6667 15.1886 11.6667 14.3999C11.6667 13.2527 12.622 12.3333 13.7879 12.3333C14.2155 12.3333 14.6226 12.4578 14.9646 12.68L14.9994 12.7046L15.0354 12.68C15.3394 12.4825 15.6949 12.3621 16.0704 12.3378L16.2122 12.3333ZM16.2122 13.6666C15.9387 13.6666 15.6923 13.7965 15.5485 14.0047L15.4954 14.0721C15.2138 14.3868 14.7 14.3643 14.4515 14.0047L14.3999 13.9383C14.2526 13.7692 14.031 13.6666 13.7879 13.6666C13.3472 13.6666 13 14.0007 13 14.3999C13 14.7757 13.2364 15.2054 13.6855 15.6928C13.7737 15.7884 13.8675 15.884 13.9772 15.991L14.3793 16.3728C14.5579 16.5331 14.7628 16.6953 14.9938 16.8589L15 16.8633L15.1746 16.7365C15.338 16.6143 15.4868 16.493 15.6208 16.3728L15.7498 16.2529L15.9221 16.0881L16.1276 15.8874C16.1944 15.8203 16.2557 15.7566 16.3145 15.6928C16.7637 15.2054 17 14.7757 17 14.3999C17 14.0007 16.6528 13.6666 16.2122 13.6666ZM14.3334 7.99992C14.7015 7.99992 15 8.2984 15 8.66659C15 9.00848 14.7427 9.29026 14.4111 9.32877L14.3334 9.33325H9.00002C8.63183 9.33325 8.33335 9.03478 8.33335 8.66659C8.33335 8.32469 8.59071 8.04291 8.92227 8.0044L9.00002 7.99992H14.3334Z"
    fill="#E478FA"/>
  <path
    d="M16.2121 13.6667C15.9386 13.6667 15.6923 13.7967 15.5485 14.0049L15.4954 14.0723C15.2138 14.387 14.7 14.3645 14.4515 14.0049L14.3999 13.9384C14.2526 13.7694 14.031 13.6667 13.7879 13.6667C13.3472 13.6667 13 14.0009 13 14.4001C13 14.7758 13.2364 15.2055 13.6855 15.693C13.7737 15.7886 13.8675 15.8842 13.9772 15.9911L14.3792 16.3729C14.5579 16.5332 14.7628 16.6954 14.9938 16.8591L15 16.8634L15.1746 16.7366C15.338 16.6145 15.4868 16.4932 15.6207 16.373L15.7498 16.2531L15.9221 16.0883L16.1276 15.8875C16.1944 15.8205 16.2557 15.7567 16.3145 15.693C16.7636 15.2055 17 14.7758 17 14.4001C17 14.0009 16.6528 13.6667 16.2121 13.6667Z"
    fill="#FBE8FF"/>
</svg>
