<svg width="16" height="16" viewBox="-4 -4 24 24" fill="none" xmlns="http://www.w3.org/2000/svg">
  <path
    fill-rule="evenodd"
    clip-rule="evenodd"
    d="M7.92144 2.38084C7.76263 2.31739 7.58551 2.31739 7.4267 2.38084L0.419298 5.18084C0.166074 5.28203 0 5.52723 0 5.79992C0 6.07261 0.166074 6.31781 0.419298 6.41899L3.18522 7.52419V11.4221C3.18522 11.6008 3.25694 11.772 3.38429 11.8973L3.85189 11.4221C3.38429 11.8973 3.38412 11.8971 3.38429 11.8973L3.38501 11.898L3.38588 11.8989L3.38806 11.901L3.39423 11.907L3.41366 11.9254C3.42974 11.9406 3.45206 11.9612 3.48037 11.9865C3.53696 12.0372 3.61773 12.1069 3.72075 12.1893C3.92631 12.3537 4.22316 12.5706 4.59576 12.7873C5.3358 13.2177 6.40803 13.6665 7.67412 13.6665C8.94021 13.6665 10.0124 13.2177 10.7525 12.7873C11.1251 12.5706 11.4219 12.3537 11.6275 12.1893C11.7305 12.1069 11.8113 12.0372 11.8679 11.9865C11.8962 11.9612 11.9185 11.9406 11.9346 11.9254L11.954 11.907L11.9602 11.901L11.9624 11.8989L11.9632 11.898C11.9634 11.8978 11.964 11.8973 11.4964 11.4221L11.964 11.8973C12.0913 11.772 12.163 11.6008 12.163 11.4221V7.52415L14.0148 6.78422V8.91091C14.0148 9.2791 14.3133 9.57757 14.6815 9.57757C15.0497 9.57757 15.3481 9.2791 15.3481 8.91091V5.83651C15.3481 5.8303 15.3481 5.82411 15.3479 5.81794C15.3481 5.81195 15.3481 5.80594 15.3481 5.79992C15.3481 5.52723 15.1821 5.28203 14.9288 5.18084L7.92144 2.38084ZM10.8297 8.05692L7.92144 9.21899C7.76263 9.28245 7.58551 9.28245 7.4267 9.21899L4.51855 8.05696V11.1198C4.52974 11.1289 4.54136 11.1383 4.55342 11.148C4.71783 11.2794 4.9605 11.457 5.2661 11.6347C5.88246 11.9932 6.72134 12.3332 7.67412 12.3332C8.6269 12.3332 9.46578 11.9932 10.0821 11.6347C10.3877 11.457 10.6304 11.2794 10.7948 11.148C10.8069 11.1383 10.8185 11.1289 10.8297 11.1198V8.05692Z"
    fill="#EEAAFD"/>
</svg>
