<svg width="16" height="16" viewBox="-4 -4 24 24" fill="none" xmlns="http://www.w3.org/2000/svg">
  <path
    d="M7.7498 3.47961C8.0373 3.70961 8.08392 4.12914 7.85391 4.41665L6.52058 6.08332C6.29057 6.37083 5.87104 6.41744 5.58354 6.18743C5.29603 5.95743 5.24941 5.5379 5.47942 5.25039L6.81275 3.58372C7.04276 3.29622 7.46229 3.2496 7.7498 3.47961Z"
    fill="#84ADFF"/>
  <path
    d="M9.86667 5.06687C10.0876 4.77232 10.0279 4.35445 9.73333 4.13354C9.43878 3.91262 9.02091 3.97232 8.8 4.26687L7.8 5.6002C7.57908 5.89475 7.63878 6.31262 7.93333 6.53354C8.22788 6.75445 8.64575 6.69475 8.86667 6.4002L9.86667 5.06687Z"
    fill="#84ADFF"/>
  <path
    fill-rule="evenodd"
    clip-rule="evenodd"
    d="M1 2.66683C1 1.93045 1.59695 1.3335 2.33333 1.3335H13.6667C14.4031 1.3335 15 1.93046 15 2.66683V10.6668C15 11.4032 14.4031 12.0002 13.6667 12.0002H11.2953L11.9576 13.7663C12.0343 13.971 12.0058 14.2004 11.8813 14.3801C11.7567 14.5598 11.552 14.667 11.3333 14.667H4.66667C4.44801 14.667 4.24326 14.5598 4.11872 14.3801C3.99417 14.2004 3.96567 13.971 4.04245 13.7663L4.70473 12.0002H2.33333C1.59696 12.0002 1 11.4032 1 10.6668V2.66683ZM10.3713 13.3337L9.87126 12.0002H6.12873L5.62867 13.3337H10.3713ZM13.6667 2.66683V7.3335H2.33333V2.66683H13.6667ZM8 10.3335C8.36819 10.3335 8.66667 10.035 8.66667 9.66683C8.66667 9.29864 8.36819 9.00016 8 9.00016C7.63181 9.00016 7.33333 9.29864 7.33333 9.66683C7.33333 10.035 7.63181 10.3335 8 10.3335Z"
    fill="#84ADFF"/>
</svg>
