<svg width="24" height="24" viewBox="0 0 24 24" fill="none" xmlns="http://www.w3.org/2000/svg">
  <rect width="24" height="24" rx="6" fill="#EDFCF2"/>
  <path
    fill-rule="evenodd"
    clip-rule="evenodd"
    d="M8.09213 5.99515C8.21191 5.79153 8.43051 5.6665 8.66675 5.6665H15.3335C15.5697 5.6665 15.7883 5.79153 15.9081 5.99516L19.2413 11.6618C19.364 11.8705 19.364 12.1292 19.2413 12.3378L15.9081 18.0045C15.7883 18.2081 15.5697 18.3332 15.3335 18.3332H8.66675C8.43051 18.3332 8.21191 18.2081 8.09213 18.0045L4.75873 12.3379C4.636 12.1292 4.636 11.8705 4.75873 11.6618L8.09213 5.99515ZM9.04805 6.99984L6.10681 11.9998L9.04805 16.9998H14.9521L17.8932 11.9998L14.9522 6.99984H9.04805ZM9.66669 11.9998C9.66669 10.7112 10.7114 9.6665 12 9.6665C13.2887 9.6665 14.3334 10.7112 14.3334 11.9998C14.3334 13.2885 13.2887 14.3332 12 14.3332C10.7114 14.3332 9.66669 13.2885 9.66669 11.9998ZM12 10.9998C11.4477 10.9998 11 11.4476 11 11.9998C11 12.5521 11.4477 12.9998 12 12.9998C12.5523 12.9998 13 12.5521 13 11.9998C13 11.4476 12.5523 10.9998 12 10.9998Z"
    fill="#2ED3B7"/>
  <path
    fill-rule="evenodd"
    clip-rule="evenodd"
    d="M6.10675 12L9.04799 7H14.9521L17.8932 12L14.9521 17H9.04799L6.10675 12ZM9.66663 12C9.66663 10.7113 10.7113 9.66667 12 9.66667C13.2886 9.66667 14.3333 10.7113 14.3333 12C14.3333 13.2887 13.2886 14.3333 12 14.3333C10.7113 14.3333 9.66663 13.2887 9.66663 12Z"
    fill="#CCFBEF"/>
  <path
    d="M11 12C11 11.4477 11.4477 11 12 11C12.5522 11 13 11.4477 13 12C13 12.5523 12.5522 13 12 13C11.4477 13 11 12.5523 11 12Z"
    fill="#CCFBEF"/>
</svg>
