<svg width="16" height="16" viewBox="-4 -4 24 24" fill="none" xmlns="http://www.w3.org/2000/svg">
  <path
    fill-rule="evenodd"
    clip-rule="evenodd"
    d="M1.33331 3.00016C1.33331 2.07969 2.07951 1.3335 2.99998 1.3335H13C13.9205 1.3335 14.6666 2.07969 14.6666 3.00016V13.0002C14.6666 13.9206 13.9205 14.6668 13 14.6668H2.99998C2.07951 14.6668 1.33331 13.9206 1.33331 13.0002V3.00016ZM11.8619 6.00014H10.3333C10.1492 6.00014 9.99998 5.8509 9.99998 5.6668V4.1382C9.99998 3.84124 10.359 3.6925 10.569 3.9025L12.0976 5.4311C12.3076 5.6411 12.1589 6.00014 11.8619 6.00014ZM5.99998 4.1382V5.6668C5.99998 5.8509 5.85075 6.00014 5.66665 6.00014H4.13805C3.84108 6.00014 3.69235 5.6411 3.90235 5.4311L5.43095 3.9025C5.64095 3.6925 5.99998 3.84124 5.99998 4.1382ZM4.13805 10.0002H5.66665C5.85075 10.0002 5.99998 10.1494 5.99998 10.3335V11.8621C5.99998 12.1591 5.64095 12.3078 5.43095 12.0978L3.90235 10.5692C3.69235 10.3592 3.84108 10.0002 4.13805 10.0002ZM9.99998 11.8621V10.3335C9.99998 10.1494 10.1492 10.0002 10.3333 10.0002H11.8619C12.1589 10.0002 12.3076 10.3592 12.0976 10.5692L10.569 12.0978C10.359 12.3078 9.99998 12.1591 9.99998 11.8621Z"
    fill="#84ADFF"/>
</svg>
