<svg width="16" height="16" viewBox="-4 -4 24 24" fill="none" xmlns="http://www.w3.org/2000/svg">
  <path
    fill-rule="evenodd"
    clip-rule="evenodd"
    d="M0.666687 3.99984C0.666687 3.26344 1.26365 2.6665 2.00002 2.6665H6.66669C7.03488 2.6665 7.33335 2.96498 7.33335 3.33317C7.33335 3.70136 7.03488 3.99984 6.66669 3.99984H2.00002V12.6665H14V9.83317C14 9.77857 14.0066 9.7255 14.019 9.67471C13.4588 8.66671 12.4112 7.99984 11.2228 7.99984C10.0379 7.99984 8.9909 8.66465 8.4308 9.6665H12.6667C13.0349 9.6665 13.3334 9.96498 13.3334 10.3332C13.3334 10.7014 13.0349 10.9998 12.6667 10.9998H7.47086C7.46127 11 7.45164 11 7.44198 10.9998H3.33335C2.96516 10.9998 2.66669 10.7014 2.66669 10.3332C2.66669 9.96498 2.96516 9.6665 3.33335 9.6665H6.96614C7.39183 8.52732 8.24297 7.59725 9.32591 7.08858C8.91544 6.61956 8.66669 6.00541 8.66669 5.33317C8.66669 3.86041 9.86059 2.6665 11.3334 2.6665C12.8061 2.6665 14 3.86041 14 5.33317C14 6.04213 13.7234 6.68647 13.2721 7.16412C14.1239 7.60442 14.8204 8.30968 15.2602 9.16901C15.3398 9.32456 15.3524 9.49676 15.3086 9.65271C15.3247 9.7101 15.3334 9.77063 15.3334 9.83317V12.6665C15.3334 13.4029 14.7364 13.9998 14 13.9998H2.00002C1.26365 13.9998 0.666687 13.4029 0.666687 12.6665V3.99984Z"
    fill="#5FE9D0"
  />
  <path
    d="M2.66669 7.6665C2.66669 7.29831 2.96516 6.99984 3.33335 6.99984H6.66669C7.03488 6.99984 7.33335 7.29831 7.33335 7.6665C7.33335 8.03469 7.03488 8.33317 6.66669 8.33317H3.33335C2.96516 8.33317 2.66669 8.03469 2.66669 7.6665Z"
    fill="#5FE9D0"
  />
</svg>
