<svg width="16" height="16" viewBox="-4 -4 24 24" fill="none" xmlns="http://www.w3.org/2000/svg">
  <path
    fill-rule="evenodd" clip-rule="evenodd"
    d="M6.00002 0.666504C6.36821 0.666504 6.66669 0.964981 6.66669 1.33317V1.99984H9.33335V1.33317C9.33335 0.964981 9.63183 0.666504 10 0.666504C10.3682 0.666504 10.6667 0.964981 10.6667 1.33317V1.99984H12.6667C13.4031 1.99984 14 2.59679 14 3.33317V13.9998C14 14.7362 13.4031 15.3332 12.6667 15.3332H4.00002C3.26364 15.3332 2.66669 14.7362 2.66669 13.9998V3.33317C2.66669 2.59679 3.26364 1.99984 4.00002 1.99984H5.33335V1.33317C5.33335 0.964981 5.63183 0.666504 6.00002 0.666504ZM5.33335 10.9998C4.96516 10.9998 4.66669 11.2983 4.66669 11.6665C4.66669 12.0347 4.96516 12.3332 5.33335 12.3332H8.00002C8.36821 12.3332 8.66669 12.0347 8.66669 11.6665C8.66669 11.2983 8.36821 10.9998 8.00002 10.9998H5.33335ZM5.33335 8.33317C4.96516 8.33317 4.66669 8.63165 4.66669 8.99984C4.66669 9.36803 4.96516 9.6665 5.33335 9.6665H9.33335C9.70154 9.6665 10 9.36803 10 8.99984C10 8.63165 9.70154 8.33317 9.33335 8.33317H5.33335ZM5.33335 5.6665C4.96516 5.6665 4.66669 5.96498 4.66669 6.33317C4.66669 6.70136 4.96516 6.99984 5.33335 6.99984H10.6667C11.0349 6.99984 11.3334 6.70136 11.3334 6.33317C11.3334 5.96498 11.0349 5.6665 10.6667 5.6665H5.33335Z"
    fill="#5FE9D0"
  />
</svg>
