<svg width="16" height="16" viewBox="-4 -4 24 24" fill="none" xmlns="http://www.w3.org/2000/svg">
  <path
    fill-rule="evenodd"
    clip-rule="evenodd"
    d="M1.66669 4.49984C1.66669 2.93503 2.93521 1.6665 4.50002 1.6665C6.06483 1.6665 7.33335 2.93503 7.33335 4.49984C7.33335 6.06464 6.06483 7.33317 4.50002 7.33317C2.93521 7.33317 1.66669 6.06464 1.66669 4.49984Z"
    fill="#5FE9D0"
  />
  <path
    fill-rule="evenodd"
    clip-rule="evenodd"
    d="M11.5 1.6665C9.93521 1.6665 8.66669 2.93503 8.66669 4.49984C8.66669 6.06464 9.93521 7.33317 11.5 7.33317C13.0648 7.33317 14.3334 6.06464 14.3334 4.49984C14.3334 2.93503 13.0648 1.6665 11.5 1.6665Z"
    fill="#5FE9D0"
  />
  <path
    fill-rule="evenodd"
    clip-rule="evenodd"
    d="M11.5 8.6665C9.93521 8.6665 8.66669 9.93503 8.66669 11.4998C8.66669 13.0646 9.93521 14.3332 11.5 14.3332C13.0648 14.3332 14.3334 13.0646 14.3334 11.4998C14.3334 9.93503 13.0648 8.6665 11.5 8.6665Z"
    fill="#5FE9D0"
  />
  <path
    fill-rule="evenodd"
    clip-rule="evenodd"
    d="M4.50002 8.6665C2.93521 8.6665 1.66669 9.93503 1.66669 11.4998C1.66669 13.0646 2.93521 14.3332 4.50002 14.3332C6.06483 14.3332 7.33335 13.0646 7.33335 11.4998C7.33335 9.93503 6.06483 8.6665 4.50002 8.6665Z"
    fill="#5FE9D0"
  />
</svg>
