<svg width="16" height="16" viewBox="-4 -4 24 24" fill="none" xmlns="http://www.w3.org/2000/svg">
  <path
    d="M8.66667 5.33341C8.66667 5.60975 8.55547 5.85882 8.37379 6.04048C8.19212 6.22217 7.943 6.33341 7.66667 6.33341C7.11439 6.33341 6.66667 5.88569 6.66667 5.33341C6.66667 4.78114 7.11439 4.33341 7.66667 4.33341C8.21894 4.33341 8.66667 4.78114 8.66667 5.33341Z"
    fill="#BDB4FE"/>
  <path
    fill-rule="evenodd" clip-rule="evenodd"
    d="M2 2.00008C2 1.2637 2.59695 0.666748 3.33333 0.666748H12.6667C13.4031 0.666748 14 1.26371 14 2.00008V14.0001C14 14.7365 13.4031 15.3334 12.6667 15.3334H3.33333C2.59696 15.3334 2 14.7365 2 14.0001V2.00008ZM7.66667 3.00008C6.37801 3.00008 5.33333 4.04476 5.33333 5.33341C5.33333 6.62207 6.37801 7.66675 7.66667 7.66675C8.06822 7.66675 8.44652 7.56497 8.77662 7.38618L9.5286 8.13815C9.78895 8.3985 10.2111 8.3985 10.4714 8.13815C10.7318 7.8778 10.7318 7.45569 10.4714 7.19534L9.71943 6.44337C9.89823 6.11326 10 5.73497 10 5.33341C10 4.04476 8.95532 3.00008 7.66667 3.00008ZM5 10.0001C5 9.63189 5.29848 9.33341 5.66667 9.33341H10.3333C10.7015 9.33341 11 9.63189 11 10.0001C11 10.3683 10.7015 10.6667 10.3333 10.6667H5.66667C5.29848 10.6667 5 10.3683 5 10.0001ZM5.66667 11.3334C5.29848 11.3334 5 11.6319 5 12.0001C5 12.3683 5.29848 12.6667 5.66667 12.6667H8C8.36819 12.6667 8.66667 12.3683 8.66667 12.0001C8.66667 11.6319 8.36819 11.3334 8 11.3334H5.66667Z"
    fill="#BDB4FE"/>
</svg>
