<svg width="16" height="16" viewBox="-4 -4 24 24" fill="none" xmlns="http://www.w3.org/2000/svg">
  <path
    fill-rule="evenodd"
    clip-rule="evenodd"
    d="M8.66958 2.33317C8.66958 1.96498 8.3711 1.6665 8.00291 1.6665C7.63472 1.6665 7.33624 1.96498 7.33624 2.33317V3.69977C6.69649 3.7639 6.08564 3.91804 5.51601 4.13831L4.96305 3.36675C4.74857 3.06748 4.33209 2.99874 4.03282 3.21322C3.73355 3.4277 3.66482 3.84417 3.8793 4.14344L4.30526 4.73781C3.95133 4.95436 3.62265 5.19498 3.32358 5.45123C2.16525 6.4437 1.33331 7.77875 1.33331 8.99984C1.33331 10.2209 2.16525 11.556 3.32358 12.5484C4.50813 13.5634 6.15722 14.3332 7.99998 14.3332C9.84261 14.3332 11.4917 13.564 12.6763 12.5492C13.8348 11.5569 14.6666 10.2218 14.6666 8.99984C14.6666 7.77785 13.8348 6.4428 12.6763 5.45045C12.4565 5.26214 12.2207 5.08229 11.9706 4.91425L12.4169 4.29157C12.6313 3.9923 12.5626 3.57582 12.2633 3.36134C11.9641 3.14685 11.5476 3.21558 11.3331 3.51485L10.7945 4.26634C10.1401 3.97846 9.42502 3.77669 8.66958 3.70033V2.33317ZM7.99998 6.33317C6.52722 6.33317 5.33331 7.52708 5.33331 8.99984C5.33331 10.4726 6.52722 11.6665 7.99998 11.6665C9.47274 11.6665 10.6666 10.4726 10.6666 8.99984C10.6666 7.52708 9.47274 6.33317 7.99998 6.33317Z"
    fill="#F7B27A"/>
</svg>
