<svg width="16" height="16" viewBox="-4 -4 24 24" fill="none" xmlns="http://www.w3.org/2000/svg">
  <path d="M6.33331 4.6665V6.6665H9.66665V4.6665H6.33331Z" fill="#F7B27A"/>
  <path
    fill-rule="evenodd"
    clip-rule="evenodd"
    d="M2.33331 1.99984C2.33331 1.26346 2.93027 0.666504 3.66665 0.666504H13C13.7364 0.666504 14.3333 1.26346 14.3333 1.99984V13.9998C14.3333 14.7362 13.7364 15.3332 13 15.3332H3.66665C2.93027 15.3332 2.33331 14.7362 2.33331 13.9998V1.99984ZM4.99998 3.99984C4.99998 3.63165 5.29846 3.33317 5.66665 3.33317H10.3333C10.7015 3.33317 11 3.63165 11 3.99984V7.33317C11 7.70136 10.7015 7.99984 10.3333 7.99984H5.66665C5.29846 7.99984 4.99998 7.70136 4.99998 7.33317V3.99984ZM5.66665 9.33317C5.29846 9.33317 4.99998 9.63165 4.99998 9.99984C4.99998 10.368 5.29846 10.6665 5.66665 10.6665H10.3333C10.7015 10.6665 11 10.368 11 9.99984C11 9.63165 10.7015 9.33317 10.3333 9.33317H5.66665ZM5.66665 11.3332C5.29846 11.3332 4.99998 11.6316 4.99998 11.9998C4.99998 12.368 5.29846 12.6665 5.66665 12.6665H7.99998C8.36817 12.6665 8.66665 12.368 8.66665 11.9998C8.66665 11.6316 8.36817 11.3332 7.99998 11.3332H5.66665Z"
    fill="#F7B27A"/>
</svg>
