<svg width="16" height="16" viewBox="-4 -4 24 24" fill="none" xmlns="http://www.w3.org/2000/svg">
  <path
    fill-rule="evenodd"
    clip-rule="evenodd"
    d="M3.33335 2.3335C2.96516 2.3335 2.66669 2.63197 2.66669 3.00016V5.00016C2.66669 5.36835 2.96516 5.66683 3.33335 5.66683H7.33335V7.66683H4.66669C4.47207 7.66683 4.28717 7.75187 4.16052 7.89964L2.16052 10.233C2.13323 10.2648 2.10947 10.2985 2.0892 10.3335H1.33335C0.965164 10.3335 0.666687 10.632 0.666687 11.0002V13.6668C0.666687 14.035 0.965164 14.3335 1.33335 14.3335H4.00002C4.36821 14.3335 4.66669 14.035 4.66669 13.6668V11.0002C4.66669 10.632 4.36821 10.3335 4.00002 10.3335H3.83045L4.97331 9.00016H7.33335V10.3335H6.66669C6.2985 10.3335 6.00002 10.632 6.00002 11.0002V13.6668C6.00002 14.035 6.2985 14.3335 6.66669 14.3335H9.33335C9.70154 14.3335 10 14.035 10 13.6668V11.0002C10 10.632 9.70154 10.3335 9.33335 10.3335H8.66669V9.00016H11.019L12.1668 10.3335H12C11.6318 10.3335 11.3334 10.632 11.3334 11.0002V13.6668C11.3334 14.035 11.6318 14.3335 12 14.3335H14.6667C15.0349 14.3335 15.3334 14.035 15.3334 13.6668V11.0002C15.3334 10.632 15.0349 10.3335 14.6667 10.3335H13.9108C13.8903 10.2981 13.8663 10.264 13.8386 10.2319L11.83 7.89857C11.7034 7.75144 11.5189 7.66683 11.3248 7.66683H8.66669V5.66683H12.6667C13.0349 5.66683 13.3334 5.36835 13.3334 5.00016V3.00016C13.3334 2.63197 13.0349 2.3335 12.6667 2.3335H3.33335Z"
    fill="#F7B27A"/>
</svg>
