<svg width="16" height="16" viewBox="-4 -4 24 24" fill="none" xmlns="http://www.w3.org/2000/svg">
  <path
    fill-rule="evenodd"
    clip-rule="evenodd"
    d="M8.66958 2.33341C8.66958 1.96522 8.3711 1.66675 8.00291 1.66675C7.63472 1.66675 7.33624 1.96522 7.33624 2.33341V3.70001C6.69649 3.76414 6.08564 3.91829 5.51601 4.13856L4.96305 3.36699C4.74857 3.06772 4.33209 2.99899 4.03282 3.21346C3.73355 3.42794 3.66482 3.84442 3.8793 4.14369L4.30526 4.73805C3.95133 4.9546 3.62265 5.19522 3.32358 5.45147C2.16525 6.44395 1.33331 7.77899 1.33331 9.00008C1.33331 10.2212 2.16525 11.5562 3.32358 12.5487C4.50813 13.5636 6.15722 14.3334 7.99998 14.3334C9.84261 14.3334 11.4917 13.5642 12.6763 12.5495C13.8348 11.5571 14.6666 10.222 14.6666 9.00008C14.6666 7.7781 13.8348 6.44304 12.6763 5.45069C12.4565 5.26239 12.2207 5.08254 11.9706 4.91449L12.4169 4.29181C12.6313 3.99254 12.5626 3.57607 12.2633 3.36158C11.9641 3.1471 11.5476 3.21583 11.3331 3.51509L10.7945 4.26658C10.1401 3.9787 9.42502 3.77694 8.66958 3.70058V2.33341ZM7.99998 6.33341C6.52722 6.33341 5.33331 7.52732 5.33331 9.00008C5.33331 10.4728 6.52722 11.6667 7.99998 11.6667C9.47274 11.6667 10.6666 10.4728 10.6666 9.00008C10.6666 7.52732 9.47274 6.33341 7.99998 6.33341Z"
    fill="#5FE9D0"/>
</svg>
