<svg width="16" height="16" viewBox="-4 -4 24 24" fill="none" xmlns="http://www.w3.org/2000/svg">
  <g clip-path="url(#clip0_752_4794)">
    <path
      d="M5.66665 3.66683C6.60798 3.98016 7.03198 5.10616 7.21798 6.34883L4.20265 8.0895L4.86931 9.24416L7.34265 7.81683C7.37331 8.7195 7.33331 9.53883 7.33331 10.0002C7.33331 12.0002 6.66665 14.0002 3.99998 14.0002C1.33331 14.0002 1.33331 14.0002 1.33331 11.3335C1.33331 6.3335 3.66665 3.00016 5.66665 3.66683ZM14.6673 11.3335V11.6242C14.664 14.0002 14.5673 14.0002 12.0006 14.0002C9.33398 14.0002 8.66731 12.0002 8.66731 10.0002C8.66731 9.5395 8.62731 8.72016 8.65798 7.8175L11.1313 9.24416L11.798 8.0895L8.78265 6.3495C8.96865 5.10616 9.39265 3.98083 10.334 3.66683C12.334 3.00016 14.6673 6.3335 14.6673 11.3335V11.3335ZM8.66665 1.3335V7.3335H7.33331V1.3335H8.66665Z"
      fill="#84ADFF"/>
  </g>
  <defs>
    <clipPath id="clip0_752_4794">
      <rect width="16" height="16" fill="white"/>
    </clipPath>
  </defs>
</svg>
