<svg width="16" height="16" viewBox="0 0 16 16" fill="none" xmlns="http://www.w3.org/2000/svg">
  <path fill="currentColor"
        d="M8.00008 12.6664H9.33341V3.99975L13.5961 5.82641C13.7161 5.87785 13.8183 5.9634 13.8902 6.07243C13.962 6.18146 14.0002 6.30919 14.0001 6.43975V12.6664H15.3334V13.9997H0.666748V12.6664H2.00008V3.76641C2.00006 3.63742 2.03747 3.5112 2.10776 3.40305C2.17805 3.29489 2.2782 3.20945 2.39608 3.15708L7.53141 0.874413C7.58222 0.851842 7.63786 0.842336 7.69328 0.846761C7.74869 0.851185 7.80212 0.8694 7.8487 0.899746C7.89528 0.930092 7.93353 0.971607 7.95997 1.02051C7.98641 1.06941 8.0002 1.12415 8.00008 1.17975V12.6664Z"/>
</svg>
