<svg width="16" height="16" viewBox="0 0 16 16" fill="none" xmlns="http://www.w3.org/2000/svg">
  <path
    d="M13.3333 1.33301C13.7013 1.33301 14 1.63167 14 1.99967V4.50434L8.00067 10.5043L7.99667 13.3297L10.8273 13.3337L14 10.161V13.9997C14 14.3677 13.7013 14.6663 13.3333 14.6663H2.66667C2.29867 14.6663 2 14.3677 2 13.9997V1.99967C2 1.63167 2.29867 1.33301 2.66667 1.33301H13.3333ZM14.5187 5.87167L15.4613 6.81434L10.276 11.9997L9.332 11.9983L9.33333 11.057L14.5187 5.87167ZM8 7.99967H4.66667V9.33301H8V7.99967ZM10 5.33301H4.66667V6.66634H10V5.33301Z"
    fill="currentColor"/>
</svg>
