<svg width="16" height="16" viewBox="0 0 16 16" fill="none" xmlns="http://www.w3.org/2000/svg">
  <path
    d="M10.6667 1.33301L14 4.66634V14.005C13.9998 14.1805 13.93 14.3487 13.8059 14.4727C13.6817 14.5967 13.5135 14.6663 13.338 14.6663H2.662C2.48692 14.6651 2.31934 14.5951 2.19548 14.4713C2.07161 14.3476 2.0014 14.1801 2 14.005V1.99434C2 1.62901 2.29667 1.33301 2.662 1.33301H10.6667ZM9.01933 9.63034L10.4927 11.1037L11.436 10.1617L9.96267 8.68834C10.291 8.12906 10.4044 7.46933 10.2816 6.83252C10.1588 6.19571 9.80832 5.62543 9.29559 5.2283C8.78286 4.83117 8.14304 4.6344 7.49576 4.67477C6.84848 4.71515 6.23807 4.98991 5.77867 5.44767C5.31936 5.9066 5.04326 6.51735 5.00218 7.16534C4.96109 7.81333 5.15784 8.45405 5.55551 8.96732C5.95318 9.48059 6.52445 9.83113 7.16217 9.9532C7.79988 10.0753 8.46023 9.96047 9.01933 9.63034ZM8.60733 8.27567C8.48434 8.40302 8.33721 8.5046 8.17454 8.57448C8.01187 8.64436 7.83691 8.68114 7.65987 8.68268C7.48283 8.68421 7.30726 8.65048 7.14339 8.58344C6.97953 8.5164 6.83066 8.41739 6.70547 8.2922C6.58028 8.16701 6.48128 8.01814 6.41424 7.85428C6.3472 7.69042 6.31346 7.51485 6.315 7.33781C6.31654 7.16077 6.35332 6.98581 6.4232 6.82314C6.49308 6.66046 6.59465 6.51334 6.722 6.39034C6.97347 6.14746 7.31027 6.01307 7.65987 6.01611C8.00946 6.01915 8.34388 6.15937 8.59109 6.40658C8.8383 6.65379 8.97853 6.98821 8.98157 7.33781C8.9846 7.6874 8.85021 8.0242 8.60733 8.27567Z"
    fill="currentColor"/>
</svg>
